<svg width="42" height="42" viewBox="0 0 42 42" fill="none" xmlns="http://www.w3.org/2000/svg">
<path d="M21 3.4502C21.3729 3.4502 21.6748 3.75207 21.6748 4.125V13.5C21.6748 13.8729 21.3729 14.1748 21 14.1748H1.625C1.25207 14.1748 0.950195 13.8729 0.950195 13.5V4.125C0.950195 3.75207 1.25207 3.4502 1.625 3.4502H21ZM2.2998 12.8252H20.3252V4.7998H2.2998V12.8252Z" fill="black" stroke="black" stroke-width="0.1"/>
<path d="M5.375 0.950195C5.74793 0.950195 6.0498 1.25207 6.0498 1.625V4.125C6.0498 4.49793 5.74793 4.7998 5.375 4.7998C5.00207 4.7998 4.7002 4.49793 4.7002 4.125V1.625C4.7002 1.25207 5.00207 0.950195 5.375 0.950195Z" fill="black" stroke="black" stroke-width="0.1"/>
<path d="M17.4062 0.950195C17.7792 0.950195 18.0811 1.25207 18.0811 1.625V4.125C18.0811 4.49793 17.7792 4.7998 17.4062 4.7998C17.0333 4.7998 16.7314 4.49793 16.7314 4.125V1.625C16.7314 1.25207 17.0333 0.950195 17.4062 0.950195Z" fill="black" stroke="black" stroke-width="0.1"/>
<path d="M9.125 6.5752C9.49793 6.5752 9.7998 6.87707 9.7998 7.25C9.7998 7.62293 9.49793 7.9248 9.125 7.9248H4.125C3.75207 7.9248 3.4502 7.62293 3.4502 7.25C3.4502 6.87707 3.75207 6.5752 4.125 6.5752H9.125Z" fill="black" stroke="black" stroke-width="0.1"/>
<path d="M18.5 6.5752C18.8729 6.5752 19.1748 6.87707 19.1748 7.25C19.1748 7.62293 18.8729 7.9248 18.5 7.9248H12.875C12.5021 7.9248 12.2002 7.62293 12.2002 7.25C12.2002 6.87707 12.5021 6.5752 12.875 6.5752H18.5Z" fill="black" stroke="black" stroke-width="0.1"/>
<path d="M18.5 9.7002C18.8729 9.7002 19.1748 10.0021 19.1748 10.375C19.1748 10.7479 18.8729 11.0498 18.5 11.0498H4.125C3.75207 11.0498 3.4502 10.7479 3.4502 10.375C3.4502 10.0021 3.75207 9.7002 4.125 9.7002H18.5Z" fill="black" stroke="black" stroke-width="0.1"/>
<path d="M37.875 29.0752C38.2479 29.0752 38.5498 29.3771 38.5498 29.75V40.375C38.5498 40.7479 38.2479 41.0498 37.875 41.0498H10.375C10.0021 41.0498 9.7002 40.7479 9.7002 40.375V29.75C9.7002 29.3771 10.0021 29.0752 10.375 29.0752H37.875ZM11.0498 39.7002H37.2002V30.4248H11.0498V39.7002Z" fill="black" stroke="black" stroke-width="0.1"/>
<path d="M40.375 26.5752C40.7479 26.5752 41.0498 26.8771 41.0498 27.25V29.75C41.0498 30.1229 40.7479 30.4248 40.375 30.4248H7.875C7.50207 30.4248 7.2002 30.1229 7.2002 29.75V27.25C7.2002 26.8771 7.50207 26.5752 7.875 26.5752H40.375ZM8.5498 29.0752H39.7002V27.9248H8.5498V29.0752Z" fill="black" stroke="black" stroke-width="0.1"/>
<path d="M20.375 16.5752C20.7479 16.5752 21.0498 16.8771 21.0498 17.25V24.75C21.0498 25.1229 20.7479 25.4248 20.375 25.4248H9.125C8.75207 25.4248 8.4502 25.1229 8.4502 24.75V17.25C8.4502 16.8771 8.75207 16.5752 9.125 16.5752H20.375ZM9.7998 24.0752H19.7002V17.9248H9.7998V24.0752Z" fill="black" stroke="black" stroke-width="0.1"/>
<path d="M16 24.0752C16.3094 24.0754 16.5791 24.2859 16.6543 24.5859L17.2793 27.0859C17.3236 27.2625 17.2942 27.4483 17.2002 27.6016L17.1562 27.665C17.0295 27.8288 16.8325 27.9248 16.625 27.9248H12.25C12.0425 27.9247 11.8459 27.8285 11.7178 27.665C11.5897 27.5014 11.5452 27.2881 11.5947 27.0869V27.0859L12.2197 24.5859C12.2949 24.2857 12.5654 24.0752 12.875 24.0752H16ZM13.1152 26.5752H15.7617L15.4746 25.4248H13.4023L13.1152 26.5752Z" fill="black" stroke="black" stroke-width="0.1"/>
<path d="M30.375 19.0752C33.1596 19.0752 35.4248 21.3404 35.4248 24.125V27.25C35.4248 27.6229 35.1229 27.9248 34.75 27.9248H26C25.6271 27.9248 25.3252 27.6229 25.3252 27.25V24.125C25.3252 21.3404 27.5904 19.0752 30.375 19.0752ZM30.375 20.4248C28.3346 20.4248 26.6748 22.0846 26.6748 24.125V26.5752H34.0752V24.125C34.0752 22.0846 32.4154 20.4248 30.375 20.4248Z" fill="black" stroke="black" stroke-width="0.1"/>
<path d="M30.375 14.0752C32.1261 14.0752 33.5498 15.4989 33.5498 17.25C33.5498 19.0011 32.1261 20.4248 30.375 20.4248C28.6239 20.4248 27.2002 19.0011 27.2002 17.25C27.2002 15.4989 28.6239 14.0752 30.375 14.0752ZM30.375 15.4248C29.369 15.4248 28.5498 16.244 28.5498 17.25C28.5498 18.256 29.369 19.0752 30.375 19.0752C31.381 19.0752 32.2002 18.256 32.2002 17.25C32.2002 16.244 31.381 15.4248 30.375 15.4248Z" fill="black" stroke="black" stroke-width="0.1"/>
<path d="M37.875 32.2002C38.2479 32.2002 38.5498 32.5021 38.5498 32.875C38.5498 33.2479 38.2479 33.5498 37.875 33.5498H10.375C10.0021 33.5498 9.7002 33.2479 9.7002 32.875C9.7002 32.5021 10.0021 32.2002 10.375 32.2002H37.875Z" fill="black" stroke="black" stroke-width="0.1"/>
</svg>
