<?xml version="1.0" encoding="UTF-8"?>
<svg id="Layer_1" data-name="Layer 1" xmlns="http://www.w3.org/2000/svg" viewBox="0 0 262 71">
  <defs>
    <style>
      .cls-1 {
        fill: #fff;
        fill-rule: evenodd;
      }
    </style>
  </defs>
  <g id="Layer_1-2" data-name="Layer 1">
    <path class="cls-1" d="M98.21,38.67v-4.1c.33.15.65.18,1.07.18.09-.04.18-.04.28-.04h.28c1.29-.15,2.32-.46,3.06-1.01.61-.46,1.16-.79,1.68-1.01,0-.04.24-.18.61-.52.37-.28.65-.46.83-.52.09.04.18.09.33.15.18.33.28.7.28,1.07s-.09.89-.33,1.44c-.04.09-.15.18-.24.28-.15.09-.28.18-.46.28-.15.09-.28.15-.37.24-.18.09-.33.18-.52.37s-.42.37-.7.65c-1.9,1.35-3.43,2.08-4.59,2.32-.42.09-.83.18-1.2.24h0v-.02Z"/>
    <path class="cls-1" d="M98.21,30.26v-3.06s.09-.09.15-.15c.74-.55,1.2-1.13,1.35-1.68,0-.15,0-.24-.04-.33-.15-.04-.28-.04-.42-.04-.42.18-.74.42-1.01.7v-4.37c.18-.15.37-.28.61-.42.33-.24.7-.42,1.01-.55.37-.09.7-.18,1.01-.18s.15,0,.18-.06h.18c.46,0,.92.18,1.44.46.46.33.83.74,1.07,1.25.15.28.18.65.18,1.16s-.15,1.16-.52,1.96c-.74,1.25-1.53,2.27-2.42,3.03-.52.42-1.01.83-1.49,1.25-.46.33-.89.7-1.29,1.01h0v.02Z"/>
    <path class="cls-1" d="M98.67,21.16l-.46,4.54s-.09.09-.15.15c-.33.37-.74.98-1.35,1.86-.04.09-.04.18-.04.33h.04c.18,0,.33-.04.52-.15.18-.09.37-.18.52-.33.15-.09.28-.24.46-.37l.35,2.79c-.09.04-.5.37-.54.42-.79.65-1.25,1.16-1.49,1.49-.09.15-.15.28-.15.46s0,.24.09.33c.04.15.09.28.18.42.09.18.15.28.18.37.28.55.74.92,1.35,1.11l.68,3.95c-.37.04-1.33.18-1.66.18h-.09c-.52,0-.92-.09-1.25-.18-.28-.09-.7-.28-1.16-.55-.09-.04-.24-.15-.52-.33-.28-.15-.46-.28-.55-.42-.24-.18-.46-.61-.83-1.16-.15-.24-.28-.61-.42-1.13-.09-.18-.15-.33-.24-.37-.04-.04-.15-.15-.28-.18-.09,0-.15-.04-.18-.04v-.09c.04-.09.09-.18.09-.33.15-.28.18-.7.18-1.11s0-.55-.04-.79l-.09-.28h-.15v-.24c.09-.18.18-.42.33-.65.15-.33.28-.55.33-.7.15-.7.28-1.35.42-1.99.09-.24.24-.61.52-1.01.28-.46.42-.74.52-.92.09-.33.18-.61.37-.83.18-.24.46-.65.92-1.22.42-.55,1.07-1.22,1.9-1.9.28-.24.61-.46.89-.65.09-.09.65-.37.79-.46h0v-.02Z"/>
    <path class="cls-1" d="M91.69,31.51v.24c-.09,0-.18-.04-.24-.04-.24.33-.46.61-.65.74-.18.18-.37.28-.55.37-.15.04-.42.18-.89.33-.37.18-.65.28-.89.28-.42,0-.89-.24-1.35-.65-.15-.15-.33-.33-.52-.61s-.37-.55-.55-.89c-.18-.28-.33-.52-.42-.7-.15-.18-.18-.37-.18-.61,0-.37.24-.92.74-1.68.04-.09.24-.42.55-.98.33-.55.52-.92.65-1.13.28-.42.52-.83.74-1.25.24-.42.42-.79.61-1.01.24-.37.42-.79.61-1.25.24-.42.33-.74.33-.92.04-.28.04-.55.04-.83v-.42c-.04-.18-.15-.37-.24-.61-.15-.18-.28-.28-.46-.28s-.04,0-.04.06h-.09c-.09,0-.24.04-.37.04-.7.61-1.16,1.25-1.29,2.05-.09.42-.28.79-.55,1.13-.28.28-.55.65-.83,1.16-.04.04-.18.28-.46.7-.24.37-.42.65-.52.89-.15.15-.24.37-.33.61-.42.89-1.07,1.49-1.99,1.81-.24.04-.37.04-.55.09-.18.15-.37.28-.52.42-.33.37-.55.7-.7,1.07-.15.42-.24.79-.33,1.16s-.18.74-.33,1.16c-.09.33-.28.74-.55,1.25-.28.46-.46.83-.55,1.01-.28.61-.46,1.07-.65,1.31-.15.28-.46.55-.89.74-.24-.33-.33-.61-.33-.92s.15-.7.42-1.31c.24-.65.37-1.11.37-1.44s.04-.55.18-.92.24-.7.33-1.01c.24-.65.42-1.31.61-1.96.24-.65.46-1.31.7-1.96s.37-1.25.42-1.77c.04-.46.15-.89.28-1.25.15-.42.33-.79.52-1.22.24-.42.46-.89.74-1.49.28-.52.55-1.16.83-1.86.04-.18.18-.52.46-.98s.42-.79.52-.98c.18-.42.33-.79.46-1.01.09-.24.24-.52.28-.79.18-.52.37-.89.46-1.13.09-.28.24-.55.37-.83.55-1.11.89-2.42,1.07-3.86,0-.15.04-.37.04-.65,0-.74-.15-1.35-.42-1.9-.24-.52-.65-.89-1.16-1.07-.33.04-.61.18-.83.37-.18.24-.42.46-.61.79-.18.28-.33.61-.46.92-.09.37-.24.65-.33.92-.24.42-.46,1.01-.7,1.77-.04.24-.24.61-.52,1.07-.24.46-.37.74-.42.79-.04.15-.15.42-.28.83-.09.46-.24.74-.33.89-.15.28-.28.52-.33.7-.09.15-.18.33-.28.55-.09.18-.18.37-.28.61-.18.37-.42,1.07-.74,2.05s-.52,1.53-.55,1.62c-.55,1.44-1.11,2.64-1.59,3.62-.09.15-.18.28-.33.52s-.24.42-.37.55c-.09.18-.18.42-.28.65-.15.24-.28.55-.55.92-.24.33-.42.65-.55.92-.18.55-.61,1.22-1.29,1.99s-1.07,1.31-1.2,1.49c-.33.46-.55.83-.74,1.2v-.04c.09.04.15.15.18.18.09.24.18.46.18.7,0,.37-.15.83-.37,1.35v.33c.37-.18.7-.52.98-.83.33-.37.61-.74.98-1.11.33-.42.65-.74,1.01-.98.09-.09.24-.15.28-.18.04.18.09.42.09.74s-.04.42-.09.74-.15.7-.24,1.16-.18.83-.18,1.11c-.09.46-.18,1.11-.28,1.9-.15.79-.24,1.44-.24,1.96,0,.89.18,1.53.52,1.86.33.46.74.7,1.25.7s.42-.04.61-.15c.18-.09.33-.18.55-.28.18-.09.28-.18.37-.24.09-.09.28-.24.52-.52.28-.24.42-.37.52-.46.24-.24.52-.61.92-1.11.37-.52.61-.79.7-.89.18-.18.33-.37.46-.52.09-.15.24-.28.28-.37.09-.09.18-.18.33-.33.15-.18.28-.37.52-.65.55-.65.98-.98,1.25-.98s.46.09.7.28c.42.37.89.74,1.35,1.16.46.37.89.7,1.25.92.33.28.7.42,1.01.46.09.04.24.04.42.04.46,0,.92-.15,1.44-.42.37-.15.7-.42.98-.7.04-.04.15-.15.28-.28.09-.18.24-.28.33-.42.15-.09.24-.18.33-.24.7-.37,1.16-.83,1.44-1.44v.09c-.09-.04-.18-.09-.24-.15-.04-.18-.09-.42-.09-.7s.04-.74.09-1.44c.04-.15.09-.33.18-.46,0-.04.04-.09.04-.09h0l.02.07Z"/>
    <path class="cls-1" d="M71.07,31.7v.04c-.24.52-.37.98-.37,1.35s.15.83.33,1.22t.04-.04v-.33s-.04.09-.09.15c-.15.37-.33.7-.52.89-.24.24-.46.46-.83.74-.33.24-.55.42-.7.55-.28.33-.7.55-1.16.79-.04,0-.24.15-.52.33-.24.18-.46.33-.55.37-.18.09-.42.24-.74.33-.33.09-.61.18-.83.24-.24.09-.46.15-.61.18-.09.04-.18.04-.24.09v-3.95c.15,0,.33.04.52.04.52,0,1.01-.09,1.53-.28.83-.33,1.62-.74,2.36-1.25.24-.15.46-.33.74-.61.33-.33.61-.52.79-.65.24-.15.46-.24.7-.24h.09l.04.04h.02Z"/>
    <path class="cls-1" d="M64.28,23.75v-3.52c.04-.15.15-.28.24-.42.09-.09.18-.18.28-.33.15-.15.28-.28.42-.46.04-.09.09-.24.09-.42.04-.18.04-.33.09-.46.24-.83.37-1.35.52-1.53.04-.15.18-.28.33-.46.18-.18.28-.28.28-.37.04-.24.09-.33.09-.33,0-.04,0-.15-.04-.24,0-.15-.04-.24-.04-.33v-.09c0-.18.09-.61.33-1.25.18-.65.28-1.11.28-1.4s0-.33-.04-.42c-.46.55-.89,1.11-1.25,1.68-.37.61-.74,1.25-1.11,1.96-.15.28-.48.65-.61.92l-.06-7.84c.04-.09.35-.59.39-.68.55-.92,1.16-1.72,1.86-2.38.7-.65,1.59-1.01,2.56-1.16h.18c.42,0,.7.18.89.55.18.42.33.83.46,1.35.04.37.09.65.09.92,0,.61-.09,1.13-.18,1.53,0,.04,0,.37-.04,1.01s-.09,1.11-.15,1.38c-.09.79-.28,1.59-.65,2.45,0,.04-.04.24-.15.46-.15.24-.24.52-.37.74,0,.09-.04.28-.09.46-.09.24-.15.46-.28.79-.37.79-.74,1.59-1.11,2.36-.15.33-.24.61-.37.89-.09.28-.24.52-.37.74-.15.24-.28.46-.52.7-.42.33-.7.7-.89,1.01-.15.33-.28.74-.42,1.31-.09.24-.18.42-.37.55-.04.09-.15.18-.24.28h0l-.07.07Z"/>
    <path class="cls-1" d="M64.28,8.01v8.17c-.28.46-.52.98-.79,1.44-.83,1.68-1.53,3.76-2.08,6.27.09.09.18.18.28.18.15,0,.33-.15.46-.33.04-.09.15-.18.18-.33.09-.15.15-.28.18-.37.52-.83.92-1.4,1.2-1.77.09-.15.24-.33.28-.52.04-.15.15-.33.24-.46,0-.04.24-.44.28-.44l.06,3.71c-.15.09-.52.41-.66.59-.09.09-.15.28-.24.55-.09.33-.18.52-.24.61-.04.18-.18.42-.42.65-.18.28-.33.46-.37.61-.28.55-.46.98-.55,1.16-.33.46-.61.89-.92,1.25-.15.18-.24.42-.24.65.04.09.04.18.04.28v.28c0,.89.24,1.68.7,2.38.74,1.16,2.07,1.94,3.04,2.12l.17,3.71c-.24.04-1.03.2-1.22.2s-.28,0-.46-.04c-.18,0-.37,0-.55-.04-.18,0-.33-.04-.46-.04-.65,0-1.38-.33-2.18-1.07-.89-.79-1.44-1.53-1.68-2.23-.04-.15-.09-.33-.18-.65-.09-.28-.24-.52-.37-.79-.15-.24-.33-.42-.61-.61-.61.37-1.25.79-1.86,1.2-.04-.04-.09-.15-.15-.18v.18c.18-.24.33-.55.33-.92s-.15-1.01-.33-1.68v.33c.04-.09.09-.15.09-.18.33-.42.74-.92,1.25-1.49.33-.37.55-.74.65-1.16.09-.37.18-.83.18-1.25s0-.98.04-1.62c.15-1.25.33-2.45.61-3.58.28-1.16.7-2.55,1.2-4.28.04-.18.15-.42.28-.7.15-.33.24-.55.33-.74.04-.18.15-.37.24-.61.15-.24.24-.52.33-.83.15-.33.28-.74.46-1.16.92-2.05,1.59-3.34,1.96-3.91.46-.89.98-1.72,1.49-2.55h0l.04.02Z"/>
    <path class="cls-1" d="M35.88,4.86s.09-.09.15-.09c.15-.09.33-.15.46-.15s.18,0,.37.09c.09.46.18,1.01.18,1.53s-.04.98-.15,1.49c-.04.33-.09.79-.15,1.44,0,.65-.04,1.16-.09,1.49-.09.55-.18,1.2-.33,2.05-.18.79-.33,1.49-.46,1.99v.15V4.86h.02Z"/>
    <path class="cls-1" d="M55.18,31.75v.33c-.24.37-.33.7-.33,1.07s.09.7.33,1.01v.18c-.18.24-.37.42-.65.55-.18.09-.42.28-.74.61-.33.33-.55.55-.83.7-.37.24-.92.37-1.62.42h-.28c-1.22,0-2.18-.42-2.93-1.31-.28-.28-.46-.55-.52-.79s-.15-.61-.24-1.16c-.09-.52-.24-.92-.37-1.31-.61.15-1.35.65-2.23,1.49-.83.79-1.49,1.4-1.99,1.81-.04.09-.24.18-.52.37-.28.15-.46.33-.61.42-.18.15-.33.28-.46.46-.15.15-.28.28-.46.42-.24.18-.52.37-.83.55l-1.22.61c-.37.24-.83.37-1.35.37s-1.01-.18-1.44-.52h0v-7.29c.04-.06.09-.09.18-.15.37-.24.7-.61,1.07-.98.37-.42.65-.7.89-.92.28-.33.55-.61.74-.83l.55-.55c.18-.18.42-.33.74-.52.33-.18.7-.52,1.07-.92.42-.37.7-.65.83-.74.37-.28.74-.61,1.11-.89.33-.24.65-.52.98-.79s.74-.61,1.22-.98c.46-.33.74-.55.83-.65.89-.74,1.62-1.35,2.18-1.72s1.22-.61,1.96-.7c.15-.04.33-.04.61-.04.7,0,1.11.24,1.25.74,0,.06.04.06.04.09v.09c0,.42-.42,1.01-1.35,1.77-.37.33-.98.92-1.81,1.72-.83.83-1.49,1.44-1.96,1.86-.52.46-.92.83-1.25,1.16-.28.33-.7.79-1.25,1.35-.55.61-.98,1.01-1.25,1.31-.37.42-.7.74-1.01,1.01-.28.28-.61.61-.89.98-.28.33-.55.65-.79,1.01-.24.18-.33.37-.33.52s.04.28.18.37c.24,0,.46-.15.74-.28.28-.18.55-.37.83-.61s.61-.46.92-.74c.37-.18,1.16-.83,2.47-1.9.18-.15.61-.55,1.31-1.25s1.31-1.22,1.81-1.53c.55-.37,1.01-.52,1.49-.52.83,0,1.22.52,1.22,1.59v1.53c0,.46.04.89.04,1.16.04.46.24.89.46,1.25.28.37.65.61,1.11.7h.18c.46,0,1.16-.37,2.14-1.07v.04h0l.04-.02Z"/>
    <path class="cls-1" d="M12.4,3.23c.18.28.37.61.55.92.33.46.46,1.07.46,1.72v.37c0,.61-.04,1.29-.15,1.96-.09.55-.18,1.25-.24,2.14,0,.15,0,.42-.09.74-.04.37-.09.65-.09.89s0,.24.04.33c.04.28.09.7.09,1.2v.83c0,.15-.04.37-.09.79-.04.37-.09.65-.09.89v.24c.15,1.25.18,2.6.18,4.1s.04,1.25.15,1.99c.04.24.04.42.04.61v.52c0,.15.04.46.04.89.04.37.15.98.37,1.81.18.83.28,1.59.28,2.23s.04.7.15,1.07c.09.42.15.7.15.98.04.15.09.37.15.61,0,.28.04.52.15.65.04.18.15.37.28.61.28-.09.46-.24.7-.52s.37-.55.42-.79c.24-.55.52-1.22.83-1.86.24-.33.65-1.4,1.29-3.12.04-.15.15-.37.24-.61s.18-.46.24-.61c.09-.15.18-.33.24-.52.15-.24.24-.46.33-.83.04-.37.15-.65.18-.74.37-.98.61-1.53.65-1.68.15-.52.33-1.07.52-1.59.28-1.11.55-2.23.83-3.34.37-1.31.55-2.32.65-3.15.15-1.29.42-2.36.79-3.3.33-.7.74-1.25,1.22-1.59.18-.09.7-.28,1.49-.52.7-.24,1.11-.33,1.22-.33.15,0,.28.04.46.09.15.09.28.18.42.33.09.15.15.28.18.37,0,.09,0,.24.04.37v.52c0,1.11-.18,2.23-.46,3.3-.09.33-.18.79-.18,1.44-.04.7-.15,1.25-.24,1.81-.18.55-.33,1.62-.55,3.12-.04.65-.04,1.25-.09,1.77-.04.55-.09,1.07-.18,1.53-.09.42-.15,1.07-.15,1.96v3.15c0,2.08.04,3.62.18,4.56l.33.15c.15-.04.18-.15.24-.18.33-.65.61-1.31.92-1.96.28-.65.52-1.16.65-1.59.18-.55.42-1.11.61-1.72.24-.55.42-1.13.65-1.68.15-.37.24-.7.33-1.01s.18-.65.28-.92c.09-.33.24-.61.33-.89.15-.28.24-.55.37-.79.15-.18.24-.52.28-.92.04-.46.09-.7.15-.79.18-.52.37-1.07.55-1.62.37-1.16.74-2.32,1.11-3.49.09-.28.18-.65.33-1.16.09-.52.24-.92.28-1.29.09-.33.24-.7.33-1.07.15-.33.24-.89.28-1.68.04-.74.15-1.35.24-1.72.15-.61.46-1.16.98-1.68.18-.15.33-.28.46-.42.09-.09.18-.18.28-.24v9.98c-.15.52-.24,1.01-.33,1.59-.04.15-.15.55-.28,1.16-.15.65-.33,1.31-.46,1.99-.09.33-.28.79-.55,1.44-.24.7-.42,1.16-.52,1.4-.33,1.31-.7,2.36-.92,3.3-.33.92-.61,1.77-.98,2.56-.18.46-.55,1.4-1.11,2.79-.55,1.44-.98,2.45-1.25,3.06-.15.24-.28.55-.46.92-.18.42-.37.79-.61,1.13-.24.28-.52.55-.89.79-.18.15-.33.24-.46.24-.15.04-.33.09-.52.09s-.37.04-.52.09c-.24.04-.42.09-.52.15-.15.04-.28.09-.42.15-.15.04-.33.09-.52.09-.65-.04-1.11-.28-1.49-.7-.24-.33-.42-.79-.55-1.4-.15-.7-.28-1.25-.42-1.72-.09-.42-.18-.83-.24-1.16-.09-.98-.18-1.99-.24-3.15-.04-1.11-.09-1.99-.18-2.6h-.37c-.09.04-.18.15-.24.18-.33.92-.92,2.08-1.72,3.43-.15.18-.24.42-.28.79-.09.37-.24.65-.33.89-.24.55-.46,1.07-.74,1.62s-.55,1.16-.89,1.77-.55,1.13-.7,1.49c-.37.74-.7,1.35-1.01,1.77-.33.42-.79.74-1.44.89-.09.04-.24.04-.46.04-.46,0-.89-.18-1.11-.61-.18-.33-.33-.65-.42-.83s-.18-.46-.33-.79c-.18-.46-.37-1.01-.52-1.77-.18-.74-.33-1.25-.37-1.53-.28-.98-.55-2.08-.83-3.39-.24-1.01-.42-2.08-.55-3.21-.09-.79-.28-1.9-.55-3.34-.28-1.44-.46-2.51-.55-3.3-.04-.55-.28-1.11-.74-1.62-.15-.15-.24-.28-.33-.46-.04-.18-.09-.33-.15-.52,0-.15-.04-.37-.04-.65-.09-1.03-.15-2.1-.15-3.27,0-2.18.18-4.37.65-6.55.18-.89.28-1.44.28-1.72,0-.42.04-.98.24-1.72.18-.74.37-1.35.61-1.81.18-.46.55-.79,1.07-.89.37-.06.61-.09.7-.09.42,0,.83.18,1.38.52.28.15.55.46.79.89h0v-.02Z"/>
    <path class="cls-1" d="M35.99,30.7c-.46.37-.87.7-1.01.89-.18.18-.24.55-.24,1.11s.04.55.09.89c0,.15.04.28.15.33.04.09.15.18.24.28s.18.18.18.33c.04.09.04.24.04.42s0,.46-.09.83c-.04.42-.09.7-.09.83,0,.61.28,1.09.7,1.46l.04-7.36h0Z"/>
    <path class="cls-1" d="M238.46,34.3v-.15h.04c.42,0,.98-.37,1.59-1.16.65-.74,1.16-1.25,1.49-1.44,1.07-.79,2.27-1.72,3.49-2.88.52-.42.89-.65,1.16-.65s.42.15.46.37c.09.28.15.61.15.98v.42c0,.15,0,.24-.04.37-.04.52-.04.89-.09,1.16-.06.33-.09.65-.18,1.01-.04.37-.15.83-.28,1.44-.09.04-.15.15-.18.24-.09-.04-.28-.09-.55-.15-.28-.09-.52-.09-.61-.09-.15,0-.28,0-.33.04-.18.09-.46.28-.74.55s-.46.52-.55.65c-.15.24-.18.46-.18.7s.04.33.09.83c.04.52.09,1.01.15,1.49,0,.15.04.33.15.55.04.28.09.55.15.83,0,.04.09.28.24.7.15.37.24.65.24.83.09.7.37,1.07.79,1.07h.15c.18-.06.46-.15.83-.37.42-.24.61-.37.55-.37.37-.15.61-.28.83-.46.18-.15.37-.37.55-.7.09-.18.24-.33.37-.37.15-.09.28-.18.46-.24.15-.04.28-.09.46-.24.33-.18.79-.52,1.44-1.01.15-.09.28-.18.52-.33.18-.15.42-.28.55-.42.18-.15.37-.33.55-.55.09-.09.24-.28.52-.46.24-.18.46-.37.65-.52.52-.37,1.01-.89,1.44-1.44.37-.52.55-1.07.55-1.68s-.15-.89-.52-1.25c-.28.37-.52.65-.65.74-.15.15-.37.33-.7.52-.33.24-.61.46-.79.7-.15.15-.28.28-.37.37s-.18.24-.28.33c-.15.09-.28.18-.46.28-.09,0-.24.04-.42.15-.18.04-.33.09-.46.18-.15.09-.28.24-.37.37h-.28c-.09-.04-.18-.09-.28-.15.09-.28.33-1.07.74-2.42s.74-2.42.92-3.12c.24-.7.37-1.4.46-2.14.04-.37.09-.74.09-1.07s0-.65.04-.83c0-.09.09-.37.18-.83.09-.52.15-.89.15-1.16v-.37c0-.7-.24-1.22-.65-1.49-.52-.42-1.07-.65-1.62-.65h-.46c-.61.15-1.16.46-1.68.98-.52.52-1.07,1.11-1.59,1.9-.28.28-.61.61-1.01.92-.42.33-.7.52-.83.65-.28.24-.55.52-.83.79-.09.09-.18.24-.28.42-.15.18-.24.33-.33.46-.15.18-.46.42-.89.74-.42.28-.7.52-.89.7-.28.33-.55.65-.83.92-.28.33-.55.61-.83.89-.28.24-.52.42-.7.55-.15.15-.33.28-.42.46v.18h.09c.18.33.24.65.24,1.07s0,.24-.04.46c0,.24-.04.46-.09.65,0,.15-.09.28-.18.46h0l-.06.07Z"/>
    <path class="cls-1" d="M238.46,31.48v.18s-.04-.04-.04-.04c-.15,0-.28.09-.42.18s-.28.24-.42.37c-.15.18-.28.33-.37.42-.18.18-.42.42-.7.61-.33.18-.55.37-.83.55-1.22.98-2.18,1.62-2.97,1.96-.18-.18-.28-.37-.28-.55s0-.28.04-.42c.04-.09.09-.24.15-.37.09-.15.15-.28.18-.42.18-.65.37-1.25.55-1.9.33-1.13.46-2.08.46-2.88s-.04-.65-.04-.89c-.04-.46-.24-1.07-.61-1.81-.42-.83-.89-1.53-1.31-1.99-1.25-1.4-2.42-2.14-3.39-2.14s-.37.04-.46.04c-.79.42-1.44.74-1.9.98-.46.28-.83.65-1.22,1.16-.15.24-.24.46-.24.7s.04.15.04.24v.42s-.04.15-.04.18c-.06.33-.33.89-.89,1.68-.83,1.13-1.62,2.18-2.51,3.21-.18.28-.33.52-.42.74h0l.15.09c.09.37.15.79.15,1.16v.33c0,.37-.04.61-.09.74-.04.09-.09.15-.18.28v.04h.09c.33,0,.61-.15.89-.37.28-.28.55-.61.89-1.01.15-.24.42-.52.83-.89.42-.37.79-.74,1.13-1.13.89-1.07,1.49-1.72,1.86-1.99.65-.52,1.13-.74,1.4-.74s.55.15.74.46c.46.61.7,1.31.7,2.18s-.09,1.01-.28,1.86c-.04.37-.18.89-.28,1.53-.15.65-.24,1.13-.33,1.49-.09.33-.24.74-.46,1.22-.04.15-.09.28-.09.46-.06.24-.06.37-.15.55,0,.09-.09.28-.18.55s-.15.42-.15.46v.18s0,.09-.04.15c0,.74.46,1.16,1.25,1.25.15.04.33.04.55.04.52,0,1.01-.15,1.49-.42.37-.18.79-.46,1.22-.7.42-.24.74-.42.92-.52.37-.15.79-.37,1.22-.7s.98-.74,1.59-1.25c.61-.55,1.01-.92,1.31-1.16.74-.61,1.25-1.13,1.53-1.53v-.15h0c-.24-.37-.33-.83-.33-1.4s0-.46.04-.61c.04-.28.15-.52.28-.7h0l-.02.02Z"/>
    <path class="cls-1" d="M220.84,31.66h0c-.24.46-.33.92-.33,1.35s.09.92.33,1.31v-.04c-.15.09-.24.24-.42.42-1.22.98-2.14,1.62-2.88,1.86-.42.15-.79.18-1.01.18-.65,0-1.31-.18-1.96-.55-.37-.24-.7-.52-.89-.74-.18-.28-.42-.65-.61-1.11s-.33-.79-.42-.92h-.28c-.74.65-1.53,1.44-2.32,2.42-.83.98-1.4,1.62-1.77,1.99-1.07,1.11-2.18,1.62-3.25,1.62s-.98-.09-1.31-.33c-.42-.24-.79-.61-1.13-1.01-.28-.46-.52-.83-.55-1.16-.33-1.07-.46-1.81-.52-2.23-.04-.42-.09-.83-.09-1.2-.09-.52-.28-.74-.65-.74h-.09s-.04,0-.09.04c-.15.04-.52.28-1.01.7-.55.42-.92.7-1.11.79,0-.04-.04-.09-.09-.09v-.04c.24-.46.37-.89.37-1.35s-.15-.74-.37-.92v-.15c.18-.33.42-.61.65-.92.24-.24.52-.52.89-.79s.61-.46.74-.65c.15-.09.28-.28.33-.46.09-.24.09-.37.15-.42.04-.15.15-.28.24-.42.15-.09.28-.28.42-.46.09-.04.18-.18.28-.42.15-.24.24-.37.33-.46.09-.18.33-.46.7-.83.18-.18.42-.52.7-.92.28-.46.42-.7.42-.74.79-1.13,1.86-1.77,3.21-1.99h.09s.06-.04.09-.04c.28,0,.55.18.79.52.18.18.24.37.24.55v.15s-.04.09-.04.18c0,.18-.09.37-.15.52l-.28.55c-.09.18-.18.37-.33.65-.42.83-.83,1.99-1.25,3.43-.15.52-.33,1.62-.52,3.43,0,.18-.04.42-.04.7v1.49c0,.61.24.92.65.92h.04c.24-.09.52-.24.74-.42.24-.18.52-.42.79-.7.24-.28.52-.55.83-.83.37-.42.74-.79,1.13-1.22.37-.42.7-.79.98-1.07.18-.18.42-.55.7-1.01s.55-.92.89-1.4c.37-.52.7-.92,1.01-1.31.33-.33.7-.52,1.07-.61.24-.04.46-.09.65-.09s.37.04.55.09c.46.15.65.55.65,1.16.09.83.15,1.68.18,2.45.04.42.18.83.46,1.35.28.46.55.79.92.92.28.04.46.09.55.09.55,0,1.16-.37,1.86-1.07l.15.04h0l-.02-.04Z"/>
    <path class="cls-1" d="M198.41,31.7v.15c-.04-.09-.09-.15-.18-.18-.15.04-.28.15-.42.28-.09.09-.28.28-.52.55-.18.24-.37.42-.55.55-.79.65-1.25,1.16-1.38,1.62-.04.15-.15.24-.18.37v2.27c.09-.09.28-.18.46-.37.24-.18.42-.33.61-.46.55-.37,1.11-.89,1.62-1.49.24-.28.42-.61.55-.89v.04c-.18-.33-.33-.7-.33-1.11s.15-.89.33-1.35h0v.02Z"/>
    <path class="cls-1" d="M195.16,32.22l-.83-7.75c.24.28,1.29,1.01,1.48,1.38.42.74.61,1.49.61,2.23,0,1.07-.42,2.47-1.25,4.1v.04h0Z"/>
    <path class="cls-1" d="M195.16,24.93v7.29c-.18.33-.65,1.01-1.35,2.08-.24.28-.37.46-.52.61s-.28.33-.46.52-.42.42-.7.74c-1.16,1.31-2.27,2.18-3.39,2.66v-3.03c.09-.04.15-.04.18-.09.24-.09.42-.28.61-.42,1.11-1.16,1.77-2.05,1.99-2.69.04-.24.18-.65.46-1.22.24-.55.37-1.01.37-1.4v-.18c-.09-.46-.28-.89-.55-1.16-.28-.37-.61-.52-1.07-.52s-.24.04-.46.09c-.37,0-.7.09-.92.28-.24.18-.42.33-.61.52v-6.49c.15-.04.24-.09.37-.09.28,0,.55.09.79.24.24.18.37.37.37.65s-.09.42-.18.61c.18.09.42.15.65.15s.42,0,.7-.04c.33-.09.55-.09.74-.09.65,0,1.29.15,2.05.42.33.15.65.37.92.61h0l.02-.02Z"/>
    <path class="cls-1" d="M195.27,34.87c-.15.18-.39.54-.57.72-.33.33-.52.55-.55.65-.18.33-.28.55-.28.79s.18.46.61.46h.24c.15,0,.28-.04.42-.15,0,0,0-.04.04-.04l.11-2.45h0l-.02.02Z"/>
    <path class="cls-1" d="M189.22,22.51l-.46,6.49s-.04.09-.04.09c-.18.24-.46.55-.89,1.01-.28.37-.46.61-.65.74-.15.09-.33.24-.55.33-.37.18-.7.61-.98,1.22-.33.61-.46,1.49-.46,2.66v.65c0,.33.09.55.28.74.28.24.65.37,1.01.37s.33-.04.42-.04c.24-.09.65-.28,1.25-.65.24-.09.83-.39,1.01-.48l-.41,3.17c-.18.09-.42.18-.65.24-.04.04-.37.18-.92.37-.55.24-.92.33-1.11.33-.24.09-.52.15-.83.15-.33.04-.7.04-1.11.09h-.18c-.46,0-1.11-.18-1.96-.55-.33-.24-.65-.46-.92-.79-.09-.15-.18-.37-.24-.65v-8.45s.09-.15.15-.18c.65-.7,1.11-1.22,1.53-1.53.52-.42,1.2-1.07,1.99-2.05.83-.92,1.59-1.68,2.18-2.18.55-.52,1.25-.83,1.99-1.01.04-.04.09-.04.09-.04h.46l-.04-.06Z"/>
    <path class="cls-1" d="M180.8,8.1V3.69s.06,0,.09.04c.09,0,.37.04.74.09s.65.09.83.15c.18.09.33.28.46.61.09.28.15.55.15.79.04.52.04,1.01.09,1.53v.24s.04.15.09.18v.24c0,.28-.15.52-.42.74h-.28c-.28,0-.83-.04-1.68-.15,0,0-.04,0-.09-.04h0l.02-.02Z"/>
    <path class="cls-1" d="M123.85,31.66h.15c.15.33.24.65.24,1.07s-.04.24-.04.46c-.04.24-.09.46-.09.65-.04.15-.09.28-.24.46v-.15h.04c.46,0,.98-.37,1.59-1.16.7-.74,1.16-1.25,1.49-1.44,1.11-.79,2.27-1.72,3.52-2.88.46-.42.83-.65,1.16-.65s.37.15.46.37c.04.28.15.61.15.98s0,.33-.04.42c0,.15,0,.24-.04.37,0,.52-.04.89-.09,1.16-.06.33-.09.65-.15,1.01-.09.37-.18.83-.28,1.44-.09.04-.18.15-.24.24-.09-.04-.28-.09-.55-.15-.28-.09-.46-.09-.61-.09s-.24,0-.33.04c-.18.09-.46.28-.74.55s-.46.52-.55.65c-.09.24-.15.46-.15.7s0,.33.04.83c.09.52.15,1.01.15,1.49.04.15.09.33.15.55.04.28.09.55.15.83.04.04.09.28.24.7.18.37.24.65.28.83.06.7.33,1.07.74,1.07h.18c.15-.06.42-.15.79-.37.42-.24.61-.37.61-.37.33-.15.61-.28.79-.46.18-.15.37-.37.61-.7.09-.18.18-.33.33-.37.15-.09.28-.18.46-.24.15-.04.33-.09.46-.24.33-.18.79-.52,1.44-1.01.15-.09.33-.18.52-.33.24-.15.42-.28.55-.42.18-.15.37-.33.55-.55.09-.09.24-.28.52-.46.24-.18.46-.37.65-.52.55-.37,1.01-.89,1.49-1.44.37-.52.55-1.07.55-1.68s-.18-.89-.52-1.25c-.33.37-.52.65-.7.74-.15.15-.37.33-.7.52-.28.24-.55.46-.79.7-.15.15-.28.28-.33.37-.09.09-.24.24-.33.33s-.28.18-.46.28c-.09,0-.18.04-.42.15-.18.04-.33.09-.46.18-.15.09-.24.24-.37.37h-.28c-.09-.04-.18-.09-.24-.15.04-.28.33-1.07.74-2.42.42-1.35.7-2.42.92-3.12.18-.7.33-1.4.42-2.14.09-.37.09-.74.09-1.07s.06-.65.06-.83c.04-.09.09-.37.18-.83.09-.52.15-.89.15-1.16v-.37c0-.7-.24-1.22-.65-1.49-.52-.42-1.01-.65-1.62-.65h-.46c-.61.15-1.16.46-1.68.98s-1.01,1.11-1.59,1.9c-.24.28-.55.61-.98.92-.46.33-.74.52-.89.65-.28.24-.55.52-.83.79-.09.09-.18.24-.28.42s-.24.33-.28.46c-.18.18-.52.42-.92.74-.42.28-.7.52-.89.7-.28.33-.55.65-.83.92-.24.33-.52.61-.83.89-.28.24-.52.42-.7.55-.15.15-.28.28-.42.46v.18h0l-.04.07Z"/>
    <path class="cls-1" d="M180.8,3.69v4.41c-.79-.09-1.4-.15-1.86-.15-.79,0-1.44.15-2.05.37.65.83,1.11,1.77,1.25,2.84.06.15.09.33.09.55s-.04.61-.15,1.07c-.09.46-.15.83-.15,1.11-.15,1.25-.33,2.23-.55,2.84-.04.18-.28,1.07-.61,2.55-.04.42-.15.89-.28,1.35-.09.52-.18.98-.28,1.44-.04.42-.18.89-.37,1.44-.18.52-.33.98-.37,1.31-.09.42-.15.92-.24,1.38-.04.52-.09.98-.18,1.35-.18,1.31-.33,2.18-.42,2.66-.18.79-.33,1.77-.37,2.84,0,.33-.04.79-.15,1.44-.09.65-.15,1.07-.15,1.31v2.88c0,.37-.24.74-.7,1.16-.46.37-.92.61-1.35.65h-.09c-.28,0-.46-.15-.61-.37-.09-.28-.15-.65-.18-1.16,0-.52-.04-.79-.04-.83-.15-.79-.24-1.49-.24-2.18v-.52c0-.09.06-.18.06-.24v-.28c0-.33-.06-.7-.09-1.16-.09-.46-.15-.83-.15-1.16,0-1.16.04-1.99.15-2.56.04-.65.15-1.62.18-2.93.04-1.31.09-2.18.15-2.6.09-.92.18-1.86.28-2.75.09-.92.18-1.86.33-2.75.04-.55.15-1.01.24-1.4.09-.37.18-.83.28-1.35.04-.37.15-.89.18-1.53s.09-1.07.15-1.16c.04-.24.09-.65.15-1.25.06-.65.15-1.16.18-1.44.15-.55.24-.98.24-1.35,0-.55-.24-.89-.74-.98-.09-.04-.24-.04-.42-.04-.52,0-1.29.15-2.27.37-.92.24-1.81.46-2.73.65-.09,0-.28.09-.65.24s-.7.24-.89.24c-.42,0-.74-.37-.92-1.01h0c0-.09.09-.52.28-1.2.18-.74.28-1.07.28-1.11.18-1.07.65-1.81,1.44-2.23.79-.42,1.81-.7,3.06-.83.46-.04.98-.09,1.49-.15.55,0,.92,0,1.25-.04.65-.09,1.35-.15,1.99-.15h1.44c.89,0,1.62.04,2.18.15.33.04.83.04,1.49.15.61,0,1.11.09,1.44.15h0l-.02-.02Z"/>
    <path class="cls-1" d="M181.21,29.02c-.55.61-1.42,1.57-1.84,1.9-.7.7-1.07,1.4-1.07,2.08s.18.89.46,1.25c.55-.28,1.11-.52,1.68-.74.09,0,.18.04.24.15-.09.74-.15,1.2-.15,1.4s0,.46.04.61v.79c.04.52.09.89.15,1.16.04.15.04.24.09.37l.41-8.97h0v-.02Z"/>
    <path class="cls-1" d="M118.59,26.46c.37.74.61,1.35.61,1.81.04.24.04.52.04.89,0,.79-.15,1.77-.46,2.88-.15.65-.33,1.25-.55,1.9-.04.15-.09.28-.15.42-.09.15-.15.28-.18.37,0,.15-.04.28-.04.42s.09.37.28.55c.79-.33,1.77-.98,2.97-1.96.28-.18.55-.37.79-.55.28-.18.52-.42.74-.61.09-.09.18-.24.33-.42.15-.15.28-.28.42-.37s.28-.18.42-.18l.04.04v-.18h0c-.09.18-.18.42-.28.7-.04.15-.04.33-.04.61,0,.55.09,1.01.33,1.4h0v.15c-.24.42-.74.92-1.53,1.53-.28.24-.65.61-1.25,1.16-.61.52-1.11.92-1.59,1.25-.42.33-.83.55-1.2.7-.18.09-.52.28-.92.52-.42.24-.83.52-1.2.7-.46.28-.92.42-1.49.42s-.42,0-.52-.04c-.83-.09-1.25-.52-1.25-1.25v-.15s.04-.09.04-.18.04-.18.15-.46c.09-.28.15-.46.18-.55.04-.18.09-.33.09-.55s.04-.33.09-.46c.24-.46.37-.89.46-1.22.09-.37.24-.83.33-1.49.15-.65.24-1.16.33-1.53.15-.83.24-1.44.24-1.86,0-.89-.24-1.59-.65-2.18-.24-.33-.46-.46-.74-.46s-.79.24-1.38.74c-.37.28-1.01.92-1.9,1.99-.33.37-.65.74-1.07,1.13-.42.37-.74.65-.89.89-.33.42-.61.74-.89,1.01-.28.24-.55.37-.89.37h-.09c-.24-.37-.33-.79-.33-1.31s.24-1.4.79-2.08c.83-1.01,1.68-2.08,2.45-3.21.55-.79.83-1.35.89-1.68.04-.04.04-.15.04-.18v-.42c0-.09,0-.18-.04-.24,0-.24.09-.46.24-.7.37-.52.74-.89,1.2-1.16.46-.24,1.11-.55,1.9-.98.09,0,.24-.04.46-.04,1.01,0,2.14.74,3.39,2.14.42.46.89,1.16,1.29,1.99h-.04Z"/>
    <path class="cls-1" d="M215.93,69.13v-1.49h0c.92,0,1.68-.37,2.27-1.01.61-.7.89-1.77.89-3.15s-.28-2.36-.89-3.03c-.61-.7-1.35-1.01-2.27-1.01h0v-1.53h0c1.49,0,2.69.46,3.62,1.44.98.98,1.44,2.32,1.44,4.04s-.24,2.47-.65,3.25c-.42.79-1.01,1.38-1.81,1.86-.79.42-1.68.65-2.6.65h0ZM223.15,68.89v-10.77h1.62v1.53c.33-.55.79-.98,1.35-1.29.55-.33,1.22-.46,1.9-.46s1.44.18,1.96.52c.52.33.89.79,1.07,1.4.89-1.25,1.99-1.9,3.34-1.9s1.9.28,2.45.89.83,1.49.83,2.75v7.38h-1.81v-6.79c0-.74-.04-1.25-.15-1.59-.15-.33-.37-.55-.65-.79-.33-.18-.7-.28-1.11-.28-.74,0-1.4.24-1.86.74-.52.52-.79,1.29-.79,2.42v6.27h-1.81v-7.01c0-.79-.15-1.4-.42-1.81-.33-.42-.79-.61-1.49-.61s-.98.15-1.4.42c-.46.28-.79.65-.98,1.16s-.28,1.29-.28,2.27v5.57h-1.81l.04-.02ZM215.93,57.88v1.53c-.89,0-1.68.33-2.27,1.01-.61.65-.89,1.68-.89,3.06s.28,2.42.89,3.12c.61.65,1.4,1.01,2.27,1.01v1.49c-1.49,0-2.69-.46-3.62-1.44s-1.4-2.38-1.4-4.19.55-3.49,1.62-4.41c.92-.79,2.08-1.2,3.39-1.2h0ZM159.44,69.13v-1.49h0c.92,0,1.68-.37,2.27-1.01.61-.7.89-1.77.89-3.15s-.28-2.36-.89-3.03c-.61-.7-1.38-1.01-2.27-1.01h0v-1.53h0c1.49,0,2.69.46,3.62,1.44s1.44,2.32,1.44,4.04-.24,2.47-.65,3.25-1.01,1.38-1.81,1.86c-.79.42-1.68.65-2.6.65h0ZM173.66,68.89v-1.59c-.83,1.2-1.96,1.81-3.39,1.81s-1.25-.15-1.77-.37c-.55-.24-.98-.55-1.25-.89-.28-.37-.46-.83-.55-1.4-.04-.33-.09-.92-.09-1.68v-6.7h1.81v6c0,.92.04,1.59.09,1.9.15.46.37.89.74,1.11.37.28.83.42,1.38.42s1.01-.15,1.53-.42c.46-.28.79-.65,1.01-1.11.18-.52.28-1.2.28-2.14v-5.76h1.81v10.77h-1.62l.04.04ZM178.17,68.89v-10.77h1.62v1.62c.42-.74.79-1.25,1.16-1.49.33-.24.74-.37,1.16-.37.61,0,1.25.18,1.86.61l-.61,1.68c-.46-.28-.89-.37-1.35-.37s-.74.09-1.07.33c-.33.28-.55.61-.7,1.01-.18.65-.28,1.35-.28,2.14v5.63h-1.81v-.02ZM184.35,65.68l1.81-.28c.09.7.37,1.25.83,1.62.46.42,1.11.61,1.96.61s1.44-.18,1.86-.52c.42-.37.61-.74.61-1.2s-.18-.74-.55-.98c-.24-.18-.83-.37-1.86-.61-1.35-.37-2.27-.65-2.79-.89s-.89-.61-1.16-1.01c-.28-.46-.42-.92-.42-1.44s.15-.92.37-1.35c.18-.42.52-.74.89-1.01.28-.18.65-.37,1.16-.52.46-.15,1.01-.24,1.59-.24.83,0,1.59.15,2.23.37.61.24,1.07.55,1.38.98.33.42.52.98.61,1.68l-1.77.24c-.09-.55-.33-.98-.7-1.29-.37-.28-.92-.46-1.62-.46s-1.44.15-1.81.42-.55.61-.55.98.09.46.24.65.37.37.7.46c.18.09.74.24,1.62.46,1.29.37,2.18.65,2.69.89.52.18.92.52,1.2.92.28.42.42.92.42,1.59s-.18,1.16-.52,1.72c-.37.52-.89.92-1.53,1.25-.7.28-1.44.42-2.27.42-1.38,0-2.45-.28-3.21-.89-.74-.55-1.2-1.44-1.38-2.56h0l-.02-.02ZM195.95,68.89v-2.08h2.08v2.08h-2.08ZM208.22,64.95l1.81.24c-.24,1.25-.7,2.18-1.53,2.88-.79.74-1.77,1.07-2.97,1.07s-2.64-.46-3.52-1.44c-.89-.98-1.35-2.32-1.35-4.13s.18-2.18.55-3.06c.42-.83.98-1.53,1.77-1.96.79-.42,1.68-.65,2.6-.65s2.08.28,2.84.89c.74.61,1.22,1.44,1.44,2.51l-1.77.28c-.18-.7-.46-1.25-.89-1.62-.46-.37-.98-.55-1.59-.55-.92,0-1.68.33-2.23,1.01-.61.65-.89,1.68-.89,3.12s.28,2.51.83,3.15,1.31.98,2.18.98,1.31-.24,1.77-.65c.52-.46.79-1.11.92-2.05h0l.02-.02ZM159.44,57.88v1.53c-.92,0-1.68.33-2.27,1.01-.61.65-.89,1.68-.89,3.06s.28,2.42.89,3.12c.61.65,1.35,1.01,2.27,1.01v1.49c-1.49,0-2.69-.46-3.62-1.44s-1.38-2.38-1.38-4.19.52-3.49,1.62-4.41c.92-.79,2.05-1.2,3.39-1.2h-.02ZM124.92,69.13v-1.49h.15c.7,0,1.2-.18,1.68-.55.46-.33.83-.89,1.11-1.68l1.9.24c-.33,1.11-.83,1.96-1.68,2.56-.79.61-1.81.92-3.03.92h-.15.02ZM124.92,63.97v-1.49h2.97c-.09-.92-.33-1.59-.7-2.05-.61-.7-1.35-1.07-2.23-1.07h-.04v-1.49h.04c1.38,0,2.55.52,3.49,1.49.89.98,1.35,2.32,1.35,4.13v.46h-4.87v.02ZM132.04,68.89v-10.77h1.62v1.62c.42-.74.79-1.25,1.16-1.49.37-.24.74-.37,1.16-.37.61,0,1.25.18,1.86.61l-.61,1.68c-.46-.28-.89-.37-1.35-.37s-.74.09-1.07.33c-.33.28-.55.61-.7,1.01-.18.65-.28,1.35-.28,2.14v5.63h-1.81v-.02ZM138.22,65.68l1.81-.28c.09.7.37,1.25.83,1.62.46.42,1.11.61,1.96.61s1.44-.18,1.86-.52c.42-.37.61-.74.61-1.2s-.18-.74-.52-.98c-.28-.18-.89-.37-1.9-.61-1.29-.37-2.23-.65-2.75-.89-.55-.24-.92-.61-1.2-1.01-.24-.46-.37-.92-.37-1.44s.09-.92.33-1.35c.18-.42.52-.74.89-1.01.28-.18.65-.37,1.16-.52s1.01-.24,1.59-.24c.83,0,1.59.15,2.23.37.65.24,1.11.55,1.38.98.33.42.52.98.65,1.68l-1.81.24c-.04-.55-.28-.98-.7-1.29-.37-.28-.92-.46-1.62-.46s-1.44.15-1.81.42-.52.61-.52.98.04.46.18.65c.18.18.42.37.7.46.18.09.74.24,1.62.46,1.29.37,2.18.65,2.69.89.52.18.92.52,1.2.92.28.42.42.92.42,1.59s-.15,1.16-.52,1.72c-.37.52-.89.92-1.53,1.25-.65.28-1.44.42-2.27.42-1.38,0-2.45-.28-3.21-.89-.7-.55-1.2-1.44-1.38-2.56h0l-.02-.02ZM153.31,67.27l.24,1.59c-.52.15-.92.18-1.35.18-.65,0-1.16-.09-1.53-.33-.37-.18-.65-.46-.79-.83-.15-.33-.24-1.01-.24-2.14v-6.18h-1.35v-1.44h1.35v-2.66l1.81-1.11v3.76h1.86v1.44h-1.86v6.27c0,.52.06.89.09,1.01.09.15.18.24.33.33s.37.15.65.15.46,0,.79-.04h0v-.02ZM124.92,57.88v1.49c-.79.04-1.49.33-2.05.83-.61.55-.89,1.35-.98,2.27h3.03v1.49h-3.12c.09,1.2.42,2.08,1.01,2.69.55.61,1.25.92,2.08.98v1.49c-1.49-.04-2.69-.52-3.62-1.44-.89-.98-1.35-2.32-1.35-4.1s.46-3.21,1.38-4.22c.92-.98,2.08-1.49,3.58-1.49h.02ZM98.11,69.04v-1.4c.46-.04.89-.18,1.25-.42.55-.28.98-.7,1.2-1.25.24-.42.33-1.01.33-1.81v-.65c-.65.24-1.59.46-2.79.65v-1.53c1.25-.15,2.14-.33,2.79-.55v-.46c0-.74-.18-1.29-.52-1.59-.46-.42-1.16-.61-2.08-.61h-.18v-1.53h.46c.92,0,1.68.09,2.23.33s.98.46,1.25.83c.28.33.46.7.55,1.2.09.33.09.89.09,1.68v2.47c0,1.68.04,2.75.15,3.21s.24.89.46,1.29h-1.9c-.18-.37-.33-.83-.37-1.35-.7.61-1.35.98-1.96,1.2-.33.15-.65.24-.98.28h0v.02ZM105.51,68.89v-14.87h1.86v14.87h-1.86ZM110.2,68.89v-14.87h1.81v8.45l4.32-4.37h2.36l-4.13,3.99,4.56,6.79h-2.27l-3.52-5.53-1.29,1.25v4.28h-1.81l-.02.02ZM31.45,68.89l-3.3-10.77h1.9l1.72,6.22.61,2.32c.04-.15.24-.89.55-2.23l1.72-6.31h1.9l1.59,6.27.55,2.05.61-2.08,1.86-6.22h1.77l-3.34,10.77h-1.9l-1.72-6.46-.42-1.81-2.18,8.27h-1.9l-.02-.02ZM98.11,57.88v1.53c-.74,0-1.35.15-1.72.42-.42.33-.7.83-.89,1.62l-1.81-.28c.18-.74.46-1.35.83-1.81.33-.52.89-.83,1.59-1.11.61-.18,1.25-.33,1.99-.37h0v-.02ZM98.11,62.62v1.53h-.18c-.79.15-1.29.24-1.62.37-.28.15-.55.33-.7.61-.18.28-.28.55-.28.89,0,.46.18.89.55,1.2.37.33.92.46,1.62.46s.42,0,.61-.06v1.4c-.33.04-.7.09-1.01.09-1.2,0-2.08-.28-2.75-.89-.65-.55-.92-1.29-.92-2.18s.09-1.01.33-1.44c.24-.46.55-.79.98-1.07.37-.28.79-.46,1.29-.61.37-.09.89-.18,1.62-.28.15,0,.33,0,.46-.04h0ZM46.45,68.89l-3.3-10.77h1.86l1.72,6.22.65,2.32c.04-.15.24-.89.55-2.23l1.72-6.31h1.86l1.62,6.27.52,2.05.65-2.08,1.81-6.22h1.77l-3.34,10.77h-1.9l-1.68-6.46-.42-1.81-2.18,8.27h-1.9v-.02ZM61.42,68.89l-3.3-10.77h1.9l1.72,6.22.61,2.32c.04-.15.24-.89.55-2.23l1.72-6.31h1.9l1.59,6.27.55,2.05.61-2.08,1.86-6.22h1.77l-3.34,10.77h-1.9l-1.72-6.46-.42-1.81-2.18,8.27h-1.9l-.02-.02ZM73.78,68.89v-2.08h2.08v2.08h-2.08ZM81.03,68.89l-3.3-10.77h1.9l1.72,6.22.61,2.32c.04-.15.24-.89.55-2.23l1.72-6.31h1.9l1.59,6.27.55,2.05.61-2.08,1.86-6.22h1.77l-3.34,10.77h-1.9l-1.72-6.46-.42-1.81-2.18,8.27h-1.9l-.02-.02Z"/>
  </g>
</svg>