<?xml version="1.0" encoding="UTF-8"?>
<svg id="Layer_1" data-name="Layer 1" xmlns="http://www.w3.org/2000/svg" viewBox="0 0 913.5 699.86">
  <defs>
    <style>
      .cls-1 {
        fill: #fff;
      }
    </style>
  </defs>
  <path class="cls-1" d="M459.96,256.87c-7.7-.54-15.47-.17-23.11.97-15.17,2.27-30.36,7.88-41.49,18.76-16.22,15.84-20.86,41.04-16.07,62.59,4.26,19.19,16.75,57.1,43.33,49.22,4.82-1.43,9.08-4.65,12.34-8.41,3.43-3.95,5.94-8.71,7.32-13.71,1.79-6.51,5.33-11.91,10.8-15.9,7.68-5.61,19.9-2.56,23.18,6.87,5.9,16.97,17.06,45.78,39.3,44.72,0,0,36.92,0,34.37-71.29,0,0,7.64-67.04-89.96-73.83Z"/>
  <path class="cls-1" d="M174.23,656.86c1.58,1.97,3.57,4.55,5.98,7.75,2.41,3.2,4.89,6.74,7.45,10.64,2.56,3.88,5.1,7.95,7.61,12.18,2.51,4.23,4.65,8.31,6.42,12.26h-15.65c-1.97-3.74-4.11-7.53-6.42-11.37-2.31-3.83-4.65-7.51-7.01-11-2.36-3.49-4.7-6.76-7.01-9.82-2.31-3.04-4.4-5.7-6.27-7.97-1.28.1-2.59.14-3.92.14h-16.9v40.01h-14.32v-100.84c4.04-.98,8.54-1.65,13.51-1.99,4.97-.35,9.52-.52,13.66-.52,14.37,0,25.32,2.72,32.85,8.12,7.53,5.41,11.3,13.49,11.3,24.22,0,6.79-1.8,12.6-5.39,17.42-3.59,4.83-8.88,8.42-15.87,10.78ZM152.52,608.87c-6.1,0-10.78.14-14.03.44v38.54h10.19c4.92,0,9.35-.24,13.29-.74,3.94-.49,7.26-1.43,9.97-2.8,2.71-1.38,4.8-3.32,6.28-5.83,1.47-2.51,2.22-5.84,2.22-9.97,0-3.83-.74-7.03-2.22-9.6-1.48-2.55-3.47-4.58-5.98-6.05-2.51-1.47-5.46-2.51-8.86-3.1-3.39-.59-7.01-.89-10.85-.89Z"/>
  <path class="cls-1" d="M300.17,597.35v12.4h-32.19v89.92h-14.32v-89.92h-32.19v-12.4h78.7Z"/>
  <path class="cls-1" d="M380.05,656.86c1.58,1.97,3.57,4.55,5.98,7.75,2.41,3.2,4.89,6.74,7.45,10.64,2.56,3.88,5.1,7.95,7.61,12.18,2.51,4.23,4.65,8.31,6.42,12.26h-15.65c-1.97-3.74-4.11-7.53-6.42-11.37-2.31-3.83-4.65-7.51-7.01-11-2.36-3.49-4.7-6.76-7.01-9.82-2.31-3.04-4.4-5.7-6.27-7.97-1.28.1-2.59.14-3.92.14h-16.9v40.01h-14.32v-100.84c4.04-.98,8.54-1.65,13.51-1.99,4.97-.35,9.52-.52,13.66-.52,14.37,0,25.32,2.72,32.85,8.12,7.53,5.41,11.3,13.49,11.3,24.22,0,6.79-1.8,12.6-5.39,17.42-3.59,4.83-8.88,8.42-15.87,10.78ZM358.35,608.87c-6.1,0-10.78.14-14.03.44v38.54h10.19c4.92,0,9.35-.24,13.29-.74,3.94-.49,7.26-1.43,9.97-2.8,2.71-1.38,4.8-3.32,6.28-5.83,1.47-2.51,2.22-5.84,2.22-9.97,0-3.83-.74-7.03-2.22-9.6-1.48-2.55-3.47-4.58-5.98-6.05-2.51-1.47-5.46-2.51-8.86-3.1-3.39-.59-7.01-.89-10.85-.89Z"/>
  <path class="cls-1" d="M627.95,597.35c-3.74,10.83-7.31,20.84-10.7,30.04-3.4,9.21-6.72,17.94-9.97,26.22-3.25,8.27-6.47,16.17-9.67,23.69-3.2,7.53-6.47,14.99-9.82,22.37h-13.44c-3.35-7.38-6.62-14.84-9.82-22.37-3.2-7.52-6.45-15.42-9.75-23.69-3.3-8.28-6.67-17-10.12-26.22-3.44-9.2-6.99-19.21-10.63-30.04h15.8c5.31,15.55,10.53,30.51,15.65,44.89,5.12,14.37,10.39,27.85,15.8,40.46,5.41-12.51,10.68-25.96,15.8-40.39,5.12-14.41,10.28-29.4,15.5-44.95h15.36Z"/>
  <path class="cls-1" d="M817.53,687.27v12.4h-61.57v-102.32h14.32v89.92h47.25Z"/>
  <polygon class="cls-1" points="671.21 687.42 671.21 651.98 712.52 651.98 712.52 640.03 671.21 640.03 671.21 609.61 719.34 609.61 719.34 597.35 656.88 597.35 656.88 699.67 723.03 699.67 723.03 687.42 671.21 687.42"/>
  <polygon class="cls-1" points="861.68 687.42 861.68 651.98 902.74 651.98 902.74 640.03 861.68 640.03 861.68 609.61 909.81 609.61 909.81 597.35 847.35 597.35 847.35 699.67 913.5 699.67 913.5 687.42 861.68 687.42"/>
  <path class="cls-1" d="M469.82,543.2c-15.38-55.24-56.79-81.59-67.49-87.6-2.8-1.68-6.65-3.63-11.84-5.93-52.51-23.25-62.86-80.87-62.86-80.87l-.08.02c-1.27-5.37-2.74-11.59-4.23-18.02l-6.17-28.21-4.53-23.47v.03c-2.36-12.48-5.19-20.17-7.91-20.04-3.46.16-5.9,12.87-6.76,31.87-.23,2.58-.39,5.6-.46,9.1l-.69,16.54c-.64,13.28-1.35,35.44-.14,52.73,2.77,58.31,54.49,86.56,54.49,86.56v-.04s118.72,77.48,118.72,77.48c0,0,.13-3.83-.05-10.16Z"/>
  <path class="cls-1" d="M469.92,543.18c15.38-55.24,56.79-81.59,67.49-87.6,2.8-1.68,6.65-3.63,11.84-5.93,52.51-23.25,62.86-80.87,62.86-80.87l.08.02c1.27-5.37,2.74-11.59,4.23-18.02l6.17-28.21,4.53-23.47v.03c2.36-12.48,5.19-20.17,7.91-20.04,3.46.16,5.9,12.87,6.76,31.87.23,2.58.39,5.6.46,9.1l.69,16.54c.64,13.28,1.35,35.44.14,52.73-2.77,58.31-54.49,86.56-54.49,86.56v-.04s-118.72,77.48-118.72,77.48c0,0-.13-3.83.05-10.16Z"/>
  <path class="cls-1" d="M468.09,513.02s-.43-4.85-1.46-11.03c-1.42-11.6-3.8-24.8-7.87-37.73,0,0-6.64-23.55-31.78-41.29-5.1-3.66-10-6.32-10-6.32l-.19.03s-.06-.04-.09-.05l.28.02c-25.12-12.07-43.32-25.8-43.32-25.8l.03.25c-.07-.05-.14-.1-.2-.15l.17-.1c-10.26-8.55-23.16-20.53-27.79-24.87-.68-.77-1.29-1.37-1.74-1.64,0,0-.02-.02-.02-.02,0,0,0,0,0,0-.32-.19-.57-.25-.75-.16-.21.12-.26.52-.23,1.03l-.04-.08s3.3,29.93,23.86,47.89c2.05,1.91,4.25,3.68,6.66,5.24,1.76,1.14,3.57,2.2,5.41,3.2,6.47,3.53,13.3,6.4,19.65,10.14,14.31,8.41,27.72,18.43,38.98,30.69,7.88,8.58,14.74,18.11,20.24,28.39,1.85,3.47,3.51,7.03,5.04,10.65l5,13.9s.57.84.16-2.21Z"/>
  <path class="cls-1" d="M471.34,513s.43-4.85,1.46-11.03c1.42-11.6,3.8-24.8,7.87-37.73,0,0,6.64-23.55,31.78-41.29,5.1-3.66,10-6.32,10-6.32l.19.03s.06-.04.09-.05l-.28.02c25.12-12.07,43.32-25.8,43.32-25.8l-.03.25c.07-.05.14-.1.2-.15l-.17-.1c10.26-8.55,23.16-20.53,27.79-24.87.68-.77,1.29-1.37,1.74-1.64,0,0,.02-.02.02-.02,0,0,0,0,0,0,.32-.19.57-.25.75-.16.21.12.26.52.23,1.03l.04-.08s-3.3,29.93-23.86,47.89c-2.05,1.91-4.25,3.68-6.66,5.24-1.76,1.14-3.57,2.2-5.41,3.2-6.47,3.53-13.3,6.4-19.65,10.14-14.31,8.41-27.72,18.43-38.98,30.69-7.88,8.58-14.74,18.11-20.24,28.39-1.85,3.47-3.51,7.03-5.04,10.65l-5,13.9s-.57.84-.16-2.21Z"/>
  <path class="cls-1" d="M572.46,303.91h-.01c-1.23-26.59-13.07-94.67-101.25-102.65-2-.35-49.38-8.46-86.56,18.72-21.42,15.67-34.76,39.89-39.91,71.87-.07,1.86.15,4.88,2.3,5.29,3.11.6,4.83-5.08,4.83-5.08h.02c3.11-12.06,12.87-41.05,38.28-58.98,13.07-9.22,28.54-14.25,46.16-15.19,16.39-.66,49.53.22,78.71,14.58.29.14.58.28.87.43,1.16.58,2.3,1.2,3.44,1.83.63.35,1.26.69,1.89,1.05.81.47,1.62.96,2.42,1.45,1.04.64,2.07,1.28,3.08,1.96.38.25.75.5,1.12.76,14.47,9.95,26.76,24.24,33,44.79l-.1-.05c2.14,6.47,3.66,13.56,4.34,21.41l.03-.14s0,.04,0,.07l-.04.07c.78,8.68,3.59,8.38,3.59,8.38,4.84.12,3.76-10.56,3.76-10.56Z"/>
  <path class="cls-1" d="M617.6,270.46c-.21-44.55-.82-158.73-58.2-225.03-23.33-28.82-48.76-39.99-69.07-43.75-.44-.12-.85-.28-1.3-.4-.39-.06-2.14-.32-4.93-.56-16.59-2.01-28.76.72-31.76,1.5-18.06,3.28-38.87,11.71-52.82,31.93l-1.55,2.25h0s-.03.04-.03.04l-1.04,1.51c-.83,1.3-1.78,3.07-1.41,3.93,0,0,.54,1.56,4.44-.63h0s4.01-2.19,4.01-2.19c.29-.16,29.82-15.96,67.28-4.29,34.82,10.85,64.99,41.22,89.74,90.37.3.56,30.11,57.06,45.46,181.29.72,4.47,3.06,5.14,3.06,5.14v.02s.82-.06.82-.06c1.21-.08,2.25-1.56,3.12-3.83h0c3.19-8.31,4.26-27.2,4.26-27.44h0c-.04-2.76-.06-6.04-.08-9.81Z"/>
  <path class="cls-1" d="M567.69,188.77c-.88-2.66-2.6-7.15-4.32-11.5-12.3-33.94-49.92-116.49-124.96-116.49,0,0-38.59-1.43-68.6,37.66-22.71,28.03-45.53,78.43-54.93,169.09l.02-.06s-1.11,9.68,1.77,10.26c0,0,3.78.72,4.94-5.33,5.68-30.73,36.97-174.01,126.67-174.01,1.22,0,2.47.03,3.71.08.22-.03,9.37-.03,23.36,5.21,5.01,2.15,14.27,6.72,25.77,15.01,33.07,27.04,64.47,75.48,64.47,75.48,1.62,2.44,3.15,1.48,3.15,1.48.98-.26.11-3.57-1.04-6.89Z"/>
  <path class="cls-1" d="M95.65,699.68l-1.27-3.99c-17.43-56.05-40.05-98.34-40.05-98.34h-13.14c-3.55,7.38-6.94,14.84-10.19,22.36-3.25,7.53-6.52,15.43-9.82,23.7-3.29,8.27-6.67,17-10.11,26.21-3.45,9.21-7.14,19.22-11.07,30.05h14.91l9.3-26.14h39.55c-1.31-3.77-3.1-8.8-4.17-11.81h-31.25c3.05-8.56,6.13-16.85,9.23-24.88,3.1-8.02,6.37-15.72,9.82-23.1,0,0,19.92,56.3,34.79,77.57h-.01s1.43,2.17,3.34,4.26c.03.03.06.06.08.09.38.42.78.81,1.2,1.2.06.06.12.13.18.19h0s.71.86,2.13,1.63c0,0,.02.01.02.01.01,0,.02.02.04.02.02.01.04.03.06.04v-.02s0,0,.01,0h-.01c.31.2.68.35,1.07.47.05.02.11.03.17.05.04.01.09.04.13.06v-.02c1.32.45,2.99.71,5.06.41v-.05s0,0,0,0Z"/>
  <path class="cls-1" d="M526.14,699.68l-1.27-3.99c-17.43-56.05-40.05-98.34-40.05-98.34h-13.14c-3.55,7.38-6.94,14.84-10.19,22.36-3.25,7.53-6.52,15.43-9.82,23.7-3.29,8.27-6.67,17-10.11,26.21-3.45,9.21-7.14,19.22-11.07,30.05h14.91l9.3-26.14h39.55c-1.31-3.77-3.1-8.8-4.17-11.81h-31.25c3.05-8.56,6.13-16.85,9.23-24.88,3.1-8.02,6.37-15.72,9.82-23.1,0,0,19.92,56.3,34.79,77.57h-.01s1.43,2.17,3.34,4.26c.03.03.06.06.08.09.38.42.78.81,1.2,1.2.06.06.12.13.18.19h0s.71.86,2.13,1.63c0,0,.02.01.02.01.01,0,.02.02.04.02.02.01.04.03.06.04v-.02s0,0,.01,0h-.01c.31.2.68.35,1.07.47.05.02.11.03.17.05.04.01.09.04.13.06v-.02c1.32.45,2.99.71,5.06.41v-.05s0,0,0,0Z"/>
</svg>