<?xml version="1.0" encoding="UTF-8"?>
<svg xmlns="http://www.w3.org/2000/svg" version="1.1" viewBox="0 0 1475.2 789.7">
  <defs>
    <style>
      .cls-1 {
        fill: #808285;
      }

      .cls-2 {
        fill: #00abc8;
      }
    </style>
  </defs>
  <!-- Generator: Adobe Illustrator 28.7.10, SVG Export Plug-In . SVG Version: 1.2.0 Build 236)  -->
  <g>
    <g id="Layer_1">
      <path class="cls-2" d="M510.2,409.3c-3.5-31-8.7-61.8-14-92.6-4.7-26.6-9.6-53.2-15.1-79.7-2.8-13.6-5.8-27.1-8.9-40.6-2.8-11.9-9.3-26.5-9.6-38.6.8,37.6,9.3,75.1,5.8,112.6-1.7,18.5-6.8,37.6-19.7,51-14.9,15.5-38.5,20.9-59.5,16.3s-39.3-17.9-52.9-34.6c-13.6-16.6-22.7-36.5-30.1-56.6,5.4,27.1,12.6,54.3,26.7,78,14.1,23.7,36.1,43.9,62.8,50.7,26.8,6.8,58.2-2.2,73.5-25.2,2.1-3.2,6.5-7,9-4.1.7.8.9,1.8,1.1,2.8,12,57.7,23.5,120.4,7.3,178.5-11.3,40.5-40.6,80.6-83.6,89.8-8.7,1.9-17.7,2.4-26.6,1.8-1.7-.1-3.4-.3-5.1-.5-18.1-2.2-36-10.2-46.2-24.3-15.3-21.1-10.4-43.4-1.3-67.6,1.9-5.1,2.4-12.9-3.3-13.6-3.8-.5-6.6,3.2-8.4,6.4-14.5,25.7-25,55.5-17.5,83.6,8.5,31.8,40.1,55.6,74.6,60.9,36.7,5.6,74.6-6.8,101.6-32.1,20.4-19.2,31.7-46.3,37.3-73.4,10-48.6,7.7-100,2.2-148.9h0Z"/>
      <g>
        <path class="cls-1" d="M880.1,221.4l-16.4-28.6h8.7l11.5,20.1,11.5-20.1h8.7l-16.5,28.6v21.8h-7.6v-21.8h0Z"/>
        <path class="cls-1" d="M926.8,217.8c0-7.1,2.6-13.2,7.8-18.3,5.2-5.1,11.4-7.6,18.7-7.6s13.3,2.6,18.5,7.7c5.2,5.1,7.7,11.3,7.7,18.5s-2.6,13.4-7.8,18.4c-5.2,5.1-11.5,7.6-18.8,7.6s-12.3-2.2-17.5-6.8c-5.7-5-8.5-11.5-8.5-19.6ZM940,231.6c3.7,3.6,8,5.4,12.9,5.4s9.7-1.8,13.4-5.5c3.6-3.7,5.5-8.2,5.5-13.5s-1.8-9.9-5.4-13.5c-3.6-3.6-8-5.5-13.2-5.5s-9.7,1.8-13.3,5.5c-3.6,3.6-5.4,8.1-5.4,13.4s1.9,10.1,5.6,13.7"/>
        <path class="cls-1" d="M1018.3,192.8v30.3c0,4.3.7,7.5,2.1,9.5,2.1,2.9,5.1,4.3,8.9,4.3s6.8-1.5,8.9-4.3c1.4-1.9,2.1-5.1,2.1-9.5v-30.3h7.6v32.4c0,5.3-1.7,9.7-4.9,13.1-3.7,3.8-8.3,5.7-13.7,5.7s-10-1.9-13.7-5.7c-3.3-3.4-5-7.8-5-13.1v-32.4h7.6,0Z"/>
        <path class="cls-1" d="M1098.9,221.7l15.6,21.5h-9.3l-14.4-20.6h-1.4v20.6h-7.6v-50.3h8.9c6.7,0,11.4,1.2,14.4,3.8,3.3,2.8,4.9,6.5,4.9,11s-1,6.6-3.1,9.2-4.7,4.2-8.1,4.9h0ZM1089.4,215.9h2.4c7.2,0,10.8-2.8,10.8-8.2s-3.5-7.7-10.5-7.7h-2.7v16h0Z"/>
        <path class="cls-1" d="M877.6,278h21.7v-19.7h7.6v50.3h-7.6v-23.5h-21.7v23.5h-7.6v-50.3h7.6v19.7Z"/>
        <path class="cls-1" d="M971,265.4h-20.2v12.1h19.6v7.1h-19.6v16.8h20.2v7.1h-27.8v-50.3h27.8v7.1h0Z"/>
        <path class="cls-1" d="M1034.7,296.4h-21.6l-5.6,12.2h-8.2l24.9-53.5,24,53.5h-8.3l-5.3-12.2h0ZM1031.6,289.3l-7.5-17.1-7.8,17.1h15.3Z"/>
        <path class="cls-1" d="M1086.5,258.3v43.2h14.8v7.1h-22.4v-50.3h7.6Z"/>
        <path class="cls-1" d="M1140.3,258.3v50.3h-7.6v-50.3h7.6Z"/>
        <path class="cls-1" d="M1176.6,308.6v-53.8l36.7,38.4v-35h7.6v53.4l-36.7-38.3v35.2h-7.6Z"/>
        <path class="cls-1" d="M1283.7,282.4h20.8v1.7c0,3.8-.4,7.1-1.3,10-.9,2.7-2.3,5.2-4.4,7.6-4.7,5.3-10.6,7.9-17.8,7.9s-13.1-2.5-18.1-7.6c-5-5.1-7.5-11.2-7.5-18.4s2.6-13.5,7.7-18.6c5.1-5.1,11.3-7.7,18.7-7.7s7.6.8,11,2.4c3.3,1.6,6.5,4.2,9.6,7.8l-5.4,5.2c-4.1-5.5-9.2-8.2-15.1-8.2s-9.8,1.8-13.4,5.5c-3.6,3.6-5.4,8.1-5.4,13.6s2,10.2,6,13.9c3.8,3.4,7.8,5,12.2,5s7.1-1.3,10.1-3.8c3-2.5,4.6-5.6,5-9.1h-12.6v-7.1h0Z"/>
        <path class="cls-1" d="M885.3,323.8v32.6c0,3.9-.3,6.8-.8,8.7-.5,2.2-1.5,4-2.8,5.5-2.5,3-5.9,4.5-10.1,4.5s-6.1-.8-8.9-2.5l3.7-6.5c1.8,1.2,3.6,1.9,5.2,1.9s3.8-.9,4.7-2.6c.9-1.7,1.4-4.7,1.4-9v-32.5h7.6,0Z"/>
        <path class="cls-1" d="M916.6,348.7c0-7.1,2.6-13.2,7.8-18.3,5.2-5.1,11.4-7.6,18.7-7.6s13.3,2.6,18.5,7.7c5.2,5.1,7.7,11.3,7.7,18.5s-2.6,13.4-7.8,18.4c-5.2,5.1-11.5,7.6-18.8,7.6s-12.3-2.2-17.5-6.8c-5.7-5-8.5-11.5-8.5-19.6h0ZM924.3,348.8c0,5.6,1.9,10.1,5.6,13.7,3.7,3.6,8,5.4,12.9,5.4s9.7-1.8,13.4-5.5c3.6-3.7,5.5-8.2,5.5-13.5s-1.8-9.9-5.4-13.5c-3.6-3.6-8-5.5-13.2-5.5s-9.7,1.8-13.3,5.5c-3.6,3.6-5.4,8.1-5.4,13.4h0Z"/>
        <path class="cls-1" d="M1008.2,323.8v30.3c0,4.3.7,7.5,2.1,9.5,2.1,2.9,5.1,4.3,8.9,4.3s6.8-1.5,8.9-4.3c1.4-1.9,2.1-5.1,2.1-9.5v-30.3h7.6v32.4c0,5.3-1.7,9.7-4.9,13.1-3.7,3.8-8.3,5.7-13.7,5.7s-10-1.9-13.7-5.7c-3.3-3.4-5-7.8-5-13.1v-32.4h7.6,0Z"/>
        <path class="cls-1" d="M1088.7,352.7l15.6,21.5h-9.3l-14.4-20.6h-1.4v20.6h-7.6v-50.3h8.9c6.7,0,11.5,1.2,14.4,3.8,3.3,2.8,4.9,6.5,4.9,11s-1,6.6-3.1,9.2c-2.1,2.6-4.7,4.2-8.1,4.9h0ZM1079.3,346.9h2.4c7.2,0,10.8-2.8,10.8-8.2s-3.5-7.7-10.5-7.7h-2.7v16h0Z"/>
        <path class="cls-1" d="M1133.6,374.1v-53.8l36.7,38.4v-35h7.6v53.4l-36.7-38.3v35.2h-7.6Z"/>
        <path class="cls-1" d="M1239.5,330.9h-20.2v12.1h19.6v7.1h-19.6v16.8h20.2v7.1h-27.8v-50.3h27.8v7.1h0Z"/>
        <path class="cls-1" d="M1281.5,352.4l-16.4-28.6h8.7l11.5,20.1,11.5-20.1h8.7l-16.5,28.6v21.8h-7.6v-21.8Z"/>
      </g>
      <path class="cls-2" d="M1396.7,361.3c-22.3-3.6-43.4,11.5-47.1,33.9-1.7,10.3.7,20.2,5.8,28.4-1.7,1-4.1,2.2-7.8,3.3-8.3,2.5-17.5-.7-20.3-1.4-1.6-.4-2.8.3-3.5,1.7-9.9-3.6-19.7-7.1-29.6-10.7-5.4-1.9-11-3.9-16.7-3.1-10.8,1.6-17.3,12.5-23.2,21.7-6.1,9.5-18.7,31.4-30.8,33.4-21.5,3.6-29.7-29.9-36.8-43.8-8.8-17.2-31.3-47.8-53-30.5-22.7,18.2-45.4,76.7-82.9,56.9-8.8-4.7-13.9-13.9-19.9-21.8-6.8-9-16.2-17.2-27.5-17.9-10.1-.7-19.5,4.7-28.3,9.7-39.1,22-98.2,47-141.9,23.1-17.7-9.7-29.9-27.5-36.5-46.5-6.6-19-8.1-39.5-8.5-59.6-1.2-64.4,8.3-128.4,17.9-192-31.3,79.4-50.2,166.1-103.4,232.9-15.5,19.5-36,37.9-60.9,39.2-22.7,1.2-44.3-13-56.6-32.1-12.3-19.1-16.5-42.4-16.9-65.1-.4-22.7,2.6-45.4,3.5-68,.1-3.5-.4-7.9-3.7-9-4-1.4-7.1,3.4-8.6,7.3-11,29.7-17.9,60.8-20.6,92.4-2.2,25.4-1.4,51.9,9.3,75.1,15.1,32.6,50,54.6,85.9,55.4,35.9.8,71.2-19.1,90.3-49.5,4.7-7.4,12.2-16.8,20-12.8,2,1,3.5,2.8,4.9,4.6,23.3,28.8,40.8,52,81.5,52,43.9,2.9,76.1-8.9,85-12.7,21.7-6.7,42.8-16,62.7-26.8,7.6-4.1,15.7-8.6,24.3-7.7,12.3,1.4,20.4,13.1,27.4,23.4,11.2,16.7,24.2,24.3,43.5,16.2,15.8-6.7,29.8-17,42.1-28.9,6.2-6,11.9-12.4,17.3-19.1,4-5,9.5-16,16.7-16.5,2.7-.2,5.3,1.2,7.4,2.9,11.5,9,15.7,25.3,23.2,37.3,8,12.7,16.8,24.8,27.2,35.6,2.6,2.7,5.5,5.4,9,6.5,7,2.2,14.3-2.1,19.7-7,8.6-7.7,15.1-17.3,21.2-27,4.8-7.5,9.9-21,19-24.2,5.8-2.1,32.6,7.6,46.7,11.7.9,2.7,4.5,4,4.5,4,0,0,10.3,2.5,18.6,1.6,5.2-.6,11.4-3.8,15.4-6.1,5.8,5.5,13.2,9.4,21.7,10.8,22.3,3.6,43.4-11.5,47.1-33.9,3.6-22.4-11.5-43.4-33.9-47h0ZM1422,406.9c-2.9,17.6-19.4,29.5-37,26.7-17.6-2.9-29.5-19.4-26.7-37,2.9-17.6,19.4-29.5,37-26.7s29.5,19.4,26.7,37h0Z"/>
      <path class="cls-2" d="M310,469.4c-1.5-.1-3,0-4.1,0-5.8,0-11.6,1.5-17.3.9-4.5-.5-3.6-4.4-3-7.8.1-.7.2-1.5.4-2.2,8.6-54.1,14.2-109.9,6.5-164.5-10.1-72-51.3-148.8-131-157.3-38.6-4.1-85.3,5.4-103.5,41.9-4.8,9.7-6.9,23-5.1,33.6,4.1,23.6,32.9,25.9,47.4,10.1,12.2-13.3,3.9-33.4,9.1-49.1,6.2-18.6,26.4-24.7,44.5-23.4,29.1,2.2,47.8,25.9,62,48.9.7,1.2,1.5,2.4,2.2,3.6,1.3,2,2.5,4.1,3.8,6.1.6.9,1.2,1.8,1.7,2.8.6,1.1.8,2.3.7,3.5,0,.1.1.2.1.4h-.2c-.4,1.6-1.4,3-3,3.7-28.3,13.4-57.6,24.7-86.1,37.7-55.2,25.3-97.5,80.4-85.6,142.7,3.3,17.4,11.5,33.7,24,46.5,33.3,34.2,87.7,42.3,133.6,43.8,8.9.3,17.8.2,26.6-.2v-.2c.1,0,10.6,0,27-2-.9,9.7-13.5,110.4-32.4,172.6,0,0,35.2-110.7,51.5-172.3.5-2,2.2-3.5,4.2-3.9,4.4-.8,8.9-1.8,13.6-2.8,2.4-.6,4.7-1.1,7-1.7.3,0,5.7-1.7,6-1.8,2-.6,3.4-1.5,3.8-3.5.2-1.3.3-2.7-.4-3.8-.9-1.4-2.5-1.8-4.2-2h0ZM203.7,463.6c-4.8-.7-9.6-1.5-14.3-2.5-2.5-.5-5-1-7.5-1.6-2.2-.5-5.4-.8-7.4-1.9-18.4-5.1-35.5-14-48.5-28.3-5.9-6.5-10.9-13.6-14.9-21.4-8.1-15.5-11.1-33.3-7.3-50.5,1.1-5.2,2.9-10.2,5.1-15,8.1-17.6,22.9-31.2,39.2-41.6,13.6-8.6,28-15.9,42.8-22.3,13.3-5.8,28.7-10.7,43.5-11,.8,0,1.5,0,2.2,0,14.8.7,18.1,13.4,19.8,23.1,2.8,16.5,5.5,33,7.4,49.6,2.6,21.9,3.7,44,3.5,66,0,8.1-.4,16.2-.7,24.3-.4,11.2-.8,22.4-1.9,33.5-.2,2.3.6,3.5-2.4,4.4-4.2,1.2-8.6.3-12.9,0-5-.5-10-.8-15-1.2-10.1-.9-20.3-1.9-30.4-3.4-.1,0-.2,0-.3,0h0Z"/>
      <g>
        <rect class="cls-2" x="1386.8" y="377.7" width="6.5" height="49.2"/>
        <rect class="cls-2" x="1365.4" y="399.1" width="49.2" height="6.5"/>
      </g>
      <g>
        <path class="cls-1" d="M561.5,529.4h4.9l5.7,15.3c.4,1,.7,1.9.9,2.7.3.8.5,1.5.7,2.1.5-1.6,1-3.2,1.5-4.7,0-.2.1-.3.2-.4l6.1-16.2,6.4,16.5c.3.8.6,1.6.9,2.4.3.8.5,1.6.8,2.4.1-.6.3-1.3.6-2s.5-1.6.9-2.7l5.7-15.4h4.9l-11.8,31.5-6.9-17.3c-.3-.8-.6-1.5-.8-2.2-.2-.7-.5-1.4-.7-2-.2.8-.5,1.6-.7,2.3-.2.7-.5,1.4-.7,2l-6.8,17.2-11.7-31.5h0Z"/>
        <path class="cls-1" d="M607.1,559.7v-30.3h16.9v4.2h-12v7.6h12v4.3h-12v9.8h12v4.4h-16.9Z"/>
        <path class="cls-1" d="M631.8,559.7v-30.3h4.9v25.9h11v4.4h-16Z"/>
        <path class="cls-1" d="M653.9,559.7v-30.3h4.9v25.9h11v4.4h-16Z"/>
        <path class="cls-1" d="M676,559.7v-31.5l19.3,18.5c.5.5,1.1,1.1,1.6,1.7s1.1,1.3,1.7,2v-21h4.6v31.5l-19.7-18.9c-.5-.5-1-1-1.5-1.6s-1-1.2-1.4-1.8v21.1h-4.5Z"/>
        <path class="cls-1" d="M712.2,559.7v-30.3h16.9v4.2h-12v7.6h12v4.3h-12v9.8h12v4.4h-16.9Z"/>
        <path class="cls-1" d="M735.1,553.6l3.9-1.8c.4,1.3,1.1,2.4,2,3.1,1,.7,2.3,1.1,3.8,1.1s2.6-.4,3.5-1.2c.9-.8,1.3-1.9,1.3-3.3s-1.5-3.4-4.4-4.8c-.4-.2-.7-.4-1-.5-3.3-1.6-5.6-3.1-6.7-4.4s-1.7-2.9-1.7-4.8.8-4.5,2.5-6,3.9-2.3,6.6-2.3,4.1.4,5.6,1.3c1.5.9,2.5,2.1,3.1,3.7l-3.8,2c-.6-1-1.3-1.7-2-2.1s-1.6-.7-2.5-.7c-1.3,0-2.4.3-3.2,1s-1.2,1.6-1.2,2.8c0,1.8,1.7,3.5,5.1,5.1.3.1.5.2.6.3,3,1.4,5.1,2.7,6.2,4,1.1,1.3,1.7,3,1.7,4.9,0,2.9-.9,5.2-2.7,6.8-1.8,1.7-4.2,2.5-7.3,2.5s-4.7-.6-6.3-1.8-2.7-2.9-3.2-5.1h0Z"/>
        <path class="cls-1" d="M760.5,553.6l3.9-1.8c.4,1.3,1.1,2.4,2,3.1,1,.7,2.3,1.1,3.8,1.1s2.6-.4,3.5-1.2c.9-.8,1.3-1.9,1.3-3.3s-1.5-3.4-4.4-4.8c-.4-.2-.7-.4-1-.5-3.3-1.6-5.6-3.1-6.7-4.4s-1.7-2.9-1.7-4.8.8-4.5,2.5-6c1.7-1.5,3.9-2.3,6.6-2.3s4.1.4,5.6,1.3c1.5.9,2.5,2.1,3.1,3.7l-3.8,2c-.6-1-1.3-1.7-2-2.1s-1.6-.7-2.5-.7c-1.3,0-2.4.3-3.2,1s-1.2,1.6-1.2,2.8c0,1.8,1.7,3.5,5.1,5.1.3.1.5.2.6.3,3,1.4,5.1,2.7,6.2,4,1.1,1.3,1.7,3,1.7,4.9,0,2.9-.9,5.2-2.7,6.8-1.8,1.7-4.2,2.5-7.3,2.5s-4.7-.6-6.3-1.8-2.7-2.9-3.2-5.1h0Z"/>
        <path class="cls-1" d="M812.4,533.6v26.2h-4.9v-26.2h-8.1v-4.2h21v4.2h-8Z"/>
        <path class="cls-1" d="M855.9,544.6c0,2.2-.4,4.2-1.2,6.1s-2,3.6-3.5,5.1c-1.6,1.5-3.3,2.7-5.3,3.5-2,.8-4,1.2-6.2,1.2s-4.3-.4-6.2-1.2c-2-.8-3.7-2-5.2-3.5-1.5-1.5-2.7-3.2-3.5-5.1-.8-1.9-1.2-4-1.2-6.1s.4-4.2,1.2-6.1,2-3.6,3.5-5.2c1.5-1.5,3.3-2.7,5.3-3.4s4-1.2,6.2-1.2,4.2.4,6.2,1.2c2,.8,3.7,1.9,5.2,3.4,1.5,1.5,2.7,3.3,3.5,5.2.8,1.9,1.2,4,1.2,6.1h0ZM850.8,544.6c0-1.5-.3-3-.8-4.4s-1.4-2.6-2.4-3.7c-1-1.1-2.2-1.9-3.5-2.5s-2.8-.9-4.3-.9-2.9.3-4.3.8-2.5,1.4-3.6,2.5c-1,1.1-1.8,2.3-2.4,3.7s-.8,2.8-.8,4.4.3,3,.8,4.3,1.3,2.6,2.4,3.7c1,1.1,2.2,1.9,3.6,2.5s2.8.8,4.3.8,2.9-.3,4.2-.8,2.5-1.4,3.6-2.5c1-1.1,1.8-2.3,2.4-3.7.6-1.4.8-2.8.8-4.3h0Z"/>
        <path class="cls-1" d="M863.6,529.4h4.9v18.4c0,2.7.6,4.8,1.9,6.2,1.3,1.4,3.2,2.1,5.7,2.1s4.4-.7,5.7-2.1,1.9-3.4,1.9-6.2v-18.4h4.9v18.9c0,4.1-1,7.2-3.1,9.2-2.1,2-5.2,3.1-9.4,3.1s-7.3-1-9.3-3c-2.1-2-3.1-5.1-3.1-9.2v-18.9h0Z"/>
        <path class="cls-1" d="M902,546.1v13.6h-4.6v-30.3h6.9c2,0,3.6.1,4.7.4s2.1.7,2.8,1.3c.9.7,1.7,1.7,2.2,2.8s.8,2.4.8,3.8c0,2.4-.6,4.3-1.8,5.7s-2.9,2.2-5.2,2.5l10.4,13.8h-5.6l-10.1-13.6h-.6,0ZM902.3,542.3h.9c2.6,0,4.3-.3,5.2-.9s1.3-1.7,1.3-3.2-.5-2.8-1.4-3.5c-.9-.7-2.6-1-5.1-1h-.9v8.7Z"/>
        <path class="cls-1" d="M923.3,559.7v-30.3h4.9v30.3h-4.9Z"/>
        <path class="cls-1" d="M935.7,553.6l3.9-1.8c.4,1.3,1.1,2.4,2,3.1,1,.7,2.3,1.1,3.8,1.1s2.6-.4,3.5-1.2c.9-.8,1.3-1.9,1.3-3.3s-1.5-3.4-4.4-4.8c-.4-.2-.7-.4-1-.5-3.3-1.6-5.6-3.1-6.7-4.4s-1.7-2.9-1.7-4.8.8-4.5,2.5-6c1.7-1.5,3.9-2.3,6.6-2.3s4.1.4,5.6,1.3c1.5.9,2.5,2.1,3.1,3.7l-3.8,2c-.6-1-1.3-1.7-2-2.1s-1.6-.7-2.5-.7c-1.3,0-2.4.3-3.2,1s-1.2,1.6-1.2,2.8c0,1.8,1.7,3.5,5.1,5.1.3.1.5.2.6.3,3,1.4,5.1,2.7,6.2,4,1.1,1.3,1.7,3,1.7,4.9,0,2.9-.9,5.2-2.7,6.8-1.8,1.7-4.2,2.5-7.3,2.5s-4.7-.6-6.3-1.8-2.7-2.9-3.2-5.1h0Z"/>
        <path class="cls-1" d="M987.6,544.7c0-.2-.2-.9-.3-2-.1-.9-.2-1.6-.3-2.2-.1.7-.3,1.4-.5,2.1s-.5,1.4-.9,2.1l-7.9,16.2-7.9-16.5c-.3-.7-.6-1.3-.9-2-.2-.6-.5-1.3-.6-1.9,0,.6,0,1.3-.2,2s-.2,1.4-.4,2.2l-3.2,14.9h-4.5l7.2-31.6,9,19.1c.1.3.3.8.6,1.5.3.7.6,1.6,1,2.6.3-.9.8-2,1.4-3.3.2-.4.3-.6.4-.8l8.7-19.1,7.3,31.6h-4.6l-3.4-15h0Z"/>
        <path class="cls-1" d="M1016.5,559.7v-30.3h7.6c2.2,0,3.8.1,4.8.3,1,.2,1.9.6,2.7,1.2.9.7,1.7,1.6,2.2,2.7.5,1.1.8,2.4.8,3.7s-.4,3-1.1,4-1.8,1.8-3.2,2.3c1.8.3,3.2,1.1,4.2,2.4,1,1.3,1.5,3,1.5,5s-.2,2.4-.6,3.5c-.4,1.1-1,2-1.8,2.8-.8.8-1.9,1.4-3.1,1.8s-3.3.5-6.2.5h-7.7ZM1021.4,542.2h1.9c2.3,0,4-.3,5-1s1.5-1.7,1.5-3.2-.4-2.8-1.3-3.5-2.6-1-5.1-1h-1.9v8.7h0ZM1021.4,555.6h1.7c1.7,0,3,0,3.9-.2.9-.1,1.5-.4,2-.7.6-.4,1.1-.9,1.4-1.6.3-.7.5-1.4.5-2.2s-.2-1.8-.6-2.5c-.4-.7-1-1.3-1.7-1.7-.5-.2-1-.4-1.6-.5-.6-.1-1.4-.2-2.4-.2h-3.2v9.7h0Z"/>
        <path class="cls-1" d="M1048.9,559.7v-13.9l-10.2-16.5h5.2l6.4,10.3c.2.3.3.6.6,1s.5.9.7,1.4c.2-.5.4-.9.6-1.4s.4-.8.7-1.2l6.5-10.2h4.9l-10.4,16.5v13.9h-4.9Z"/>
        <path class="cls-1" d="M1081,529.4h4.9l5.7,15.3c.4,1,.7,1.9.9,2.7s.5,1.5.7,2.1c.5-1.6,1-3.2,1.5-4.7,0-.2.1-.3.2-.4l6.1-16.2,6.4,16.5c.3.8.6,1.6.9,2.4.3.8.5,1.6.8,2.4.1-.6.3-1.3.6-2,.2-.8.5-1.6.9-2.7l5.7-15.4h4.9l-11.8,31.5-6.9-17.3c-.3-.8-.6-1.5-.8-2.2-.2-.7-.5-1.4-.7-2-.2.8-.5,1.6-.7,2.3-.2.7-.5,1.4-.7,2l-6.8,17.2-11.7-31.5h0Z"/>
        <path class="cls-1" d="M1145.8,559.7l-3.4-7.8h-12l-3.5,7.8h-5.2l14.7-31.5,14.7,31.5h-5.2ZM1132.2,547.8h8.4l-3.1-6.9c-.2-.4-.4-1-.6-1.5-.2-.6-.4-1.2-.6-1.9-.2.7-.3,1.3-.5,1.8s-.4,1.1-.6,1.6l-3.1,6.9h0Z"/>
        <path class="cls-1" d="M1156,559.7v-30.3h4.9v25.9h11v4.4h-16Z"/>
        <path class="cls-1" d="M1178.1,559.7v-30.3h4.9v12.6l10.9-12.6h6l-12,13.5,13.4,16.8h-6.4l-12-15.5v15.5h-4.9Z"/>
        <path class="cls-1" d="M1206.5,559.7v-30.3h16.9v4.2h-12v7.6h12v4.3h-12v9.8h12v4.4h-16.9Z"/>
        <path class="cls-1" d="M1235.8,546.1v13.6h-4.6v-30.3h6.9c2,0,3.6.1,4.7.4s2.1.7,2.8,1.3c.9.7,1.7,1.7,2.2,2.8s.8,2.4.8,3.8c0,2.4-.6,4.3-1.8,5.7s-2.9,2.2-5.2,2.5l10.4,13.8h-5.6l-10.1-13.6h-.6ZM1236.1,542.3h.9c2.6,0,4.3-.3,5.2-.9s1.3-1.7,1.3-3.2-.5-2.8-1.4-3.5c-.9-.7-2.6-1-5.1-1h-.9v8.7Z"/>
        <path class="cls-1" d="M1255.3,553.6l3.9-1.8c.4,1.3,1.1,2.4,2.1,3.1,1,.7,2.3,1.1,3.8,1.1s2.6-.4,3.5-1.2c.9-.8,1.3-1.9,1.3-3.3s-1.5-3.4-4.4-4.8c-.4-.2-.7-.4-.9-.5-3.3-1.6-5.6-3.1-6.7-4.4-1.1-1.3-1.7-2.9-1.7-4.8s.8-4.5,2.5-6c1.7-1.5,3.9-2.3,6.6-2.3s4.1.4,5.6,1.3c1.5.9,2.6,2.1,3.1,3.7l-3.8,2c-.6-1-1.3-1.7-2-2.1s-1.6-.7-2.5-.7c-1.3,0-2.4.3-3.2,1s-1.2,1.6-1.2,2.8c0,1.8,1.7,3.5,5.1,5.1.3.1.5.2.6.3,3,1.4,5.1,2.7,6.2,4,1.1,1.3,1.7,3,1.7,4.9,0,2.9-.9,5.2-2.7,6.8-1.8,1.7-4.2,2.5-7.3,2.5s-4.7-.6-6.3-1.8-2.7-2.9-3.2-5.1h0Z"/>
        <path class="cls-1" d="M1307.2,533.6v26.2h-4.9v-26.2h-8.1v-4.2h21v4.2h-8,0Z"/>
        <path class="cls-1" d="M1350.7,544.6c0,2.2-.4,4.2-1.2,6.1-.8,1.9-2,3.6-3.5,5.1-1.6,1.5-3.3,2.7-5.3,3.5-2,.8-4,1.2-6.2,1.2s-4.3-.4-6.2-1.2c-2-.8-3.7-2-5.2-3.5-1.6-1.5-2.7-3.2-3.5-5.1s-1.2-4-1.2-6.1.4-4.2,1.2-6.1c.8-1.9,2-3.6,3.5-5.2,1.6-1.5,3.3-2.7,5.3-3.4s4-1.2,6.2-1.2,4.2.4,6.2,1.2c1.9.8,3.7,1.9,5.2,3.4,1.6,1.5,2.7,3.3,3.5,5.2s1.2,4,1.2,6.1h0ZM1345.6,544.6c0-1.5-.3-3-.8-4.4s-1.4-2.6-2.4-3.7c-1-1.1-2.2-1.9-3.6-2.5s-2.8-.9-4.3-.9-2.9.3-4.3.8-2.5,1.4-3.6,2.5c-1.1,1.1-1.8,2.3-2.4,3.7s-.8,2.8-.8,4.4.3,3,.8,4.3c.6,1.4,1.3,2.6,2.4,3.7,1.1,1.1,2.2,1.9,3.6,2.5s2.8.8,4.3.8,2.9-.3,4.2-.8,2.5-1.4,3.6-2.5c1.1-1.1,1.8-2.3,2.4-3.7s.8-2.8.8-4.3h0Z"/>
        <path class="cls-1" d="M1358.4,529.4h4.9v18.4c0,2.7.6,4.8,1.9,6.2,1.3,1.4,3.2,2.1,5.7,2.1s4.4-.7,5.7-2.1,1.9-3.4,1.9-6.2v-18.4h4.9v18.9c0,4.1-1,7.2-3.1,9.2-2.1,2-5.2,3.1-9.4,3.1s-7.3-1-9.3-3c-2.1-2-3.1-5.1-3.1-9.2v-18.9h0Z"/>
        <path class="cls-1" d="M1396.8,546.1v13.6h-4.6v-30.3h6.9c2,0,3.6.1,4.7.4s2.1.7,2.8,1.3c.9.7,1.7,1.7,2.2,2.8s.8,2.4.8,3.8c0,2.4-.6,4.3-1.8,5.7s-2.9,2.2-5.2,2.5l10.4,13.8h-5.6l-10.1-13.6h-.6ZM1397.1,542.3h.9c2.6,0,4.3-.3,5.2-.9s1.3-1.7,1.3-3.2-.5-2.8-1.4-3.5c-.9-.7-2.6-1-5.1-1h-.9v8.7Z"/>
        <path class="cls-1" d="M1416.3,553.6l3.9-1.8c.4,1.3,1.1,2.4,2.1,3.1,1,.7,2.3,1.1,3.8,1.1s2.6-.4,3.5-1.2c.9-.8,1.3-1.9,1.3-3.3s-1.5-3.4-4.4-4.8c-.4-.2-.7-.4-.9-.5-3.3-1.6-5.6-3.1-6.7-4.4-1.1-1.3-1.7-2.9-1.7-4.8s.8-4.5,2.5-6c1.7-1.5,3.9-2.3,6.6-2.3s4.1.4,5.6,1.3c1.5.9,2.6,2.1,3.1,3.7l-3.8,2c-.6-1-1.3-1.7-2-2.1s-1.6-.7-2.5-.7c-1.3,0-2.4.3-3.2,1s-1.2,1.6-1.2,2.8c0,1.8,1.7,3.5,5.1,5.1.3.1.5.2.6.3,3,1.4,5.1,2.7,6.2,4,1.1,1.3,1.7,3,1.7,4.9,0,2.9-.9,5.2-2.7,6.8-1.8,1.7-4.2,2.5-7.3,2.5s-4.7-.6-6.3-1.8-2.7-2.9-3.2-5.1h0Z"/>
      </g>
    </g>
  </g>
</svg>