<svg width="44" height="44" viewBox="0 0 44 44" fill="none" xmlns="http://www.w3.org/2000/svg">
<circle cx="22" cy="22" r="22" fill="white"/>
<path d="M22.0003 31C21.3247 31 20.7773 30.4527 20.7773 29.7771V14.223C20.7773 13.5474 21.3247 13 22.0003 13C22.6759 13 23.2233 13.5474 23.2233 14.223V29.7771C23.2233 30.4527 22.6759 31 22.0003 31Z" fill="#1C2F4E"/>
<path d="M29.7771 23.2233H14.223C13.5474 23.2233 13 22.6759 13 22.0003C13 21.3247 13.5474 20.7773 14.223 20.7773H29.7771C30.4527 20.7773 31 21.3247 31 22.0003C31 22.6759 30.4527 23.2233 29.7771 23.2233Z" fill="#1C2F4E"/>
</svg>
