<svg width="42" height="41" viewBox="0 0 42 41" fill="none" xmlns="http://www.w3.org/2000/svg">
<mask id="path-1-outside-1_2110_583" maskUnits="userSpaceOnUse" x="0" y="-0.294922" width="42" height="42" fill="black">
<rect fill="white" y="-0.294922" width="42" height="42"/>
<path d="M10.1385 8.08564C10.4621 8.08564 10.7245 7.82329 10.7245 7.4997C10.7245 7.17611 10.4621 6.91376 10.1385 6.91376C9.81492 6.91376 9.55258 7.17611 9.55258 7.4997C9.55258 7.82329 9.81484 8.08564 10.1385 8.08564ZM5.45102 8.08564C5.77461 8.08564 6.03695 7.82329 6.03695 7.4997C6.03695 7.17611 5.77461 6.91376 5.45102 6.91376C5.12742 6.91376 4.86508 7.17611 4.86508 7.4997C4.86508 7.82329 5.12734 8.08564 5.45102 8.08564ZM7.79477 8.08564C8.11836 8.08564 8.3807 7.82329 8.3807 7.4997C8.3807 7.17611 8.11836 6.91376 7.79477 6.91376C7.47117 6.91376 7.20883 7.17611 7.20883 7.4997C7.20883 7.82329 7.47109 8.08564 7.79477 8.08564ZM7.66625 14.2929C7.66984 14.293 7.67344 14.293 7.67703 14.293L12.9746 14.2943H12.9749C13.3409 14.2943 13.6516 14.0572 13.7483 13.7042C13.845 13.3511 13.6982 12.9887 13.3832 12.8024L12.5775 12.3256C13.8725 11.0421 14.6009 9.29087 14.5893 7.45603C14.5661 3.78665 11.5628 0.758607 7.89453 0.705794C4.09336 0.651185 1 3.72595 1 7.49986C1 11.1188 3.98188 14.2145 7.66625 14.2929ZM3.84766 3.49517C4.92813 2.43017 6.35625 1.85634 7.87773 1.87751C10.9131 1.92119 13.3982 4.42697 13.4174 7.46337C13.4278 9.10157 12.7253 10.6595 11.49 11.7374C11.2834 11.9176 11.1752 12.188 11.2002 12.4607C11.2252 12.7333 11.3809 12.9792 11.6165 13.1185L11.6223 13.122L7.68281 13.121C4.63734 13.0626 2.17188 10.5537 2.17188 7.49986C2.17188 5.98259 2.76703 4.5604 3.84766 3.49517ZM40.4141 39.5332H39.8281V30.8074C39.8281 28.5213 38.4773 26.4454 36.3801 25.5158L33.2921 24.1923C34.0435 23.9552 34.7223 23.5324 35.2747 22.9459C36.108 22.0611 36.5859 20.8606 36.5859 19.652C36.5859 18.5416 36.198 17.4935 35.4638 16.6207C34.5455 15.5303 34.0398 14.1445 34.0398 12.7185V9.91064C34.0398 7.45142 33.0821 5.13986 31.3432 3.40181C29.6043 1.66275 27.2925 0.705091 24.8336 0.705091C19.7577 0.705091 15.6281 4.83462 15.6281 9.91056V12.627C15.6284 14.1026 15.0485 15.5111 14.1062 16.6465C12.9202 18.0754 12.6738 20.0074 13.4632 21.6884C14.0491 22.9362 15.106 23.8327 16.3713 24.2121L13.3048 25.5456C11.1535 26.4509 9.76336 28.5439 9.76336 30.8778V37.7755C9.76336 38.0991 10.0256 38.3614 10.3493 38.3614C10.673 38.3614 10.9352 38.0991 10.9352 37.7755V30.8778C10.9352 29.0167 12.0437 27.3476 13.7658 26.623L17.6094 24.9516V28.4785H15.8435C15.3459 28.4785 14.8695 28.6907 14.5366 29.0607C14.2038 29.4307 14.043 29.9267 14.0955 30.4216L15.0614 39.5332H1.58594C1.26227 39.5332 1 39.7956 1 40.1192C1 40.4427 1.26227 40.7051 1.58594 40.7051H40.4141C40.7377 40.7051 41 40.4427 41 40.1192C41 39.7956 40.7377 39.5332 40.4141 39.5332ZM34.5673 17.3752C35.1213 18.0338 35.4141 18.8211 35.4141 19.652C35.4141 20.565 35.0523 21.4727 34.4216 22.1424C33.7538 22.8513 32.8364 23.2418 31.8384 23.2418H31.0748L30.0717 22.8119C29.1955 22.4361 28.5962 21.6306 28.4737 20.7033C30.2816 19.7299 31.5134 17.8194 31.5134 15.6262V11.2213C31.6848 11.2329 31.8562 11.2392 32.027 11.2392C32.3088 11.2392 32.5895 11.2232 32.868 11.1917V12.7184C32.868 14.4202 33.4716 16.0742 34.5673 17.3752ZM24.976 26.6253C22.8798 26.6624 20.7995 26.3968 18.7812 25.837V24.442L18.9507 24.3683C18.952 24.3678 18.9534 24.3671 18.9548 24.3666L20.0001 23.912C21.1637 23.4062 21.9859 22.3701 22.2352 21.1593C22.7455 21.3077 23.284 21.3888 23.8415 21.3888H25.7508C26.3104 21.3888 26.8509 21.307 27.3629 21.1576C27.6204 22.3628 28.4458 23.3896 29.6099 23.889L30.7255 24.3671C30.7262 24.3674 30.727 24.3678 30.7277 24.368L30.8103 24.4034V25.7219C28.914 26.2869 26.9535 26.5908 24.976 26.6253ZM30.8102 26.9419V28.4786H18.7812V27.0505C20.6808 27.5485 22.6311 27.8006 24.5946 27.8006C24.7285 27.8006 24.8625 27.7994 24.9965 27.797C26.9645 27.7627 28.9163 27.4751 30.8102 26.9419ZM32.868 10.0101C31.254 10.2281 29.4347 9.79579 28.1813 8.82462C27.9255 8.6265 27.5575 8.67306 27.3592 8.92892C27.161 9.1847 27.2077 9.55275 27.4635 9.75095C28.283 10.3858 29.2713 10.833 30.3415 11.0585V14.2484C30.0599 14.8901 29.7465 15.4238 29.0398 16.0067C28.7423 16.2522 28.4167 16.456 28.068 16.6177C27.7832 16.062 27.2048 15.6806 26.5387 15.6806H25.1656C24.2185 15.6806 23.448 16.4512 23.448 17.3982C23.448 18.3452 24.2185 19.1158 25.1656 19.1158H26.5387C27.3358 19.1158 28.0077 18.57 28.2005 17.8327C28.9844 17.534 30.2624 16.4685 30.2627 16.4681C29.8659 18.5984 27.9944 20.2166 25.7509 20.2166H23.8414C21.3102 20.2166 19.2508 18.1573 19.2508 15.626V11.0967C21.2409 10.7848 23.1209 10.1113 24.8452 9.0915C27.4705 7.53861 29.1545 5.50939 30.1707 3.90618C31.9095 5.45486 32.8987 7.67509 32.868 10.0101ZM27.0843 17.3999C27.0834 17.7001 26.8391 17.9441 26.5387 17.9441H25.1655C24.8646 17.9441 24.6198 17.6992 24.6198 17.3984C24.6198 17.0975 24.8647 16.8527 25.1655 16.8527H26.5387C26.839 16.8527 27.0833 17.0965 27.0843 17.3966V17.3999ZM16.8 9.91056C16.8 5.48079 20.4038 1.87697 24.8336 1.87697C26.4223 1.87697 27.9404 2.33556 29.2377 3.18931C28.3024 4.68845 26.7283 6.61626 24.2485 8.08314C22.5473 9.08939 20.6813 9.73181 18.7021 9.99259H18.6655C18.6653 9.99259 18.6651 9.99259 18.6648 9.99259C18.6645 9.99259 18.6643 9.99259 18.664 9.99259H16.7999V9.91056H16.8ZM14.5238 21.1902C13.9297 19.9248 14.1152 18.4705 15.0072 17.3958C16.1265 16.0473 16.8013 14.381 16.8 12.627V11.1645H18.0789V15.6262C18.0789 17.8206 19.3123 19.732 21.1218 20.7049C21.0086 21.6392 20.411 22.4554 19.5327 22.8373L18.6024 23.2418H17.7531C16.3555 23.2418 15.1181 22.4557 14.5238 21.1902ZM34.9212 30.2981L33.9423 39.5332H16.2398L15.2609 30.2981C15.2431 30.1307 15.2953 29.9696 15.4079 29.8445C15.5205 29.7194 15.6752 29.6505 15.8435 29.6505H34.3386C34.5069 29.6505 34.6616 29.7194 34.7742 29.8445C34.8868 29.9696 34.939 30.1307 34.9212 30.2981ZM38.6562 39.5332H35.1207L36.0866 30.4217C36.1391 29.9268 35.9782 29.4308 35.6455 29.0608C35.3126 28.6908 34.8363 28.4786 34.3386 28.4786H31.982V24.9057L35.9118 26.59C37.579 27.3291 38.6562 28.9845 38.6562 30.8074V39.5332ZM25.091 32.3652C23.8633 32.3652 22.8645 33.3641 22.8645 34.5918C22.8645 35.8195 23.8633 36.8184 25.091 36.8184C26.3187 36.8184 27.3176 35.8195 27.3176 34.5918C27.3176 33.3641 26.3187 32.3652 25.091 32.3652ZM25.091 35.6465C24.5095 35.6465 24.0363 35.1734 24.0363 34.5918C24.0363 34.0103 24.5095 33.5371 25.091 33.5371C25.6726 33.5371 26.1457 34.0103 26.1457 34.5918C26.1457 35.1734 25.6727 35.6465 25.091 35.6465Z"/>
</mask>
<path d="M10.1385 8.08564C10.4621 8.08564 10.7245 7.82329 10.7245 7.4997C10.7245 7.17611 10.4621 6.91376 10.1385 6.91376C9.81492 6.91376 9.55258 7.17611 9.55258 7.4997C9.55258 7.82329 9.81484 8.08564 10.1385 8.08564ZM5.45102 8.08564C5.77461 8.08564 6.03695 7.82329 6.03695 7.4997C6.03695 7.17611 5.77461 6.91376 5.45102 6.91376C5.12742 6.91376 4.86508 7.17611 4.86508 7.4997C4.86508 7.82329 5.12734 8.08564 5.45102 8.08564ZM7.79477 8.08564C8.11836 8.08564 8.3807 7.82329 8.3807 7.4997C8.3807 7.17611 8.11836 6.91376 7.79477 6.91376C7.47117 6.91376 7.20883 7.17611 7.20883 7.4997C7.20883 7.82329 7.47109 8.08564 7.79477 8.08564ZM7.66625 14.2929C7.66984 14.293 7.67344 14.293 7.67703 14.293L12.9746 14.2943H12.9749C13.3409 14.2943 13.6516 14.0572 13.7483 13.7042C13.845 13.3511 13.6982 12.9887 13.3832 12.8024L12.5775 12.3256C13.8725 11.0421 14.6009 9.29087 14.5893 7.45603C14.5661 3.78665 11.5628 0.758607 7.89453 0.705794C4.09336 0.651185 1 3.72595 1 7.49986C1 11.1188 3.98188 14.2145 7.66625 14.2929ZM3.84766 3.49517C4.92813 2.43017 6.35625 1.85634 7.87773 1.87751C10.9131 1.92119 13.3982 4.42697 13.4174 7.46337C13.4278 9.10157 12.7253 10.6595 11.49 11.7374C11.2834 11.9176 11.1752 12.188 11.2002 12.4607C11.2252 12.7333 11.3809 12.9792 11.6165 13.1185L11.6223 13.122L7.68281 13.121C4.63734 13.0626 2.17188 10.5537 2.17188 7.49986C2.17188 5.98259 2.76703 4.5604 3.84766 3.49517ZM40.4141 39.5332H39.8281V30.8074C39.8281 28.5213 38.4773 26.4454 36.3801 25.5158L33.2921 24.1923C34.0435 23.9552 34.7223 23.5324 35.2747 22.9459C36.108 22.0611 36.5859 20.8606 36.5859 19.652C36.5859 18.5416 36.198 17.4935 35.4638 16.6207C34.5455 15.5303 34.0398 14.1445 34.0398 12.7185V9.91064C34.0398 7.45142 33.0821 5.13986 31.3432 3.40181C29.6043 1.66275 27.2925 0.705091 24.8336 0.705091C19.7577 0.705091 15.6281 4.83462 15.6281 9.91056V12.627C15.6284 14.1026 15.0485 15.5111 14.1062 16.6465C12.9202 18.0754 12.6738 20.0074 13.4632 21.6884C14.0491 22.9362 15.106 23.8327 16.3713 24.2121L13.3048 25.5456C11.1535 26.4509 9.76336 28.5439 9.76336 30.8778V37.7755C9.76336 38.0991 10.0256 38.3614 10.3493 38.3614C10.673 38.3614 10.9352 38.0991 10.9352 37.7755V30.8778C10.9352 29.0167 12.0437 27.3476 13.7658 26.623L17.6094 24.9516V28.4785H15.8435C15.3459 28.4785 14.8695 28.6907 14.5366 29.0607C14.2038 29.4307 14.043 29.9267 14.0955 30.4216L15.0614 39.5332H1.58594C1.26227 39.5332 1 39.7956 1 40.1192C1 40.4427 1.26227 40.7051 1.58594 40.7051H40.4141C40.7377 40.7051 41 40.4427 41 40.1192C41 39.7956 40.7377 39.5332 40.4141 39.5332ZM34.5673 17.3752C35.1213 18.0338 35.4141 18.8211 35.4141 19.652C35.4141 20.565 35.0523 21.4727 34.4216 22.1424C33.7538 22.8513 32.8364 23.2418 31.8384 23.2418H31.0748L30.0717 22.8119C29.1955 22.4361 28.5962 21.6306 28.4737 20.7033C30.2816 19.7299 31.5134 17.8194 31.5134 15.6262V11.2213C31.6848 11.2329 31.8562 11.2392 32.027 11.2392C32.3088 11.2392 32.5895 11.2232 32.868 11.1917V12.7184C32.868 14.4202 33.4716 16.0742 34.5673 17.3752ZM24.976 26.6253C22.8798 26.6624 20.7995 26.3968 18.7812 25.837V24.442L18.9507 24.3683C18.952 24.3678 18.9534 24.3671 18.9548 24.3666L20.0001 23.912C21.1637 23.4062 21.9859 22.3701 22.2352 21.1593C22.7455 21.3077 23.284 21.3888 23.8415 21.3888H25.7508C26.3104 21.3888 26.8509 21.307 27.3629 21.1576C27.6204 22.3628 28.4458 23.3896 29.6099 23.889L30.7255 24.3671C30.7262 24.3674 30.727 24.3678 30.7277 24.368L30.8103 24.4034V25.7219C28.914 26.2869 26.9535 26.5908 24.976 26.6253ZM30.8102 26.9419V28.4786H18.7812V27.0505C20.6808 27.5485 22.6311 27.8006 24.5946 27.8006C24.7285 27.8006 24.8625 27.7994 24.9965 27.797C26.9645 27.7627 28.9163 27.4751 30.8102 26.9419ZM32.868 10.0101C31.254 10.2281 29.4347 9.79579 28.1813 8.82462C27.9255 8.6265 27.5575 8.67306 27.3592 8.92892C27.161 9.1847 27.2077 9.55275 27.4635 9.75095C28.283 10.3858 29.2713 10.833 30.3415 11.0585V14.2484C30.0599 14.8901 29.7465 15.4238 29.0398 16.0067C28.7423 16.2522 28.4167 16.456 28.068 16.6177C27.7832 16.062 27.2048 15.6806 26.5387 15.6806H25.1656C24.2185 15.6806 23.448 16.4512 23.448 17.3982C23.448 18.3452 24.2185 19.1158 25.1656 19.1158H26.5387C27.3358 19.1158 28.0077 18.57 28.2005 17.8327C28.9844 17.534 30.2624 16.4685 30.2627 16.4681C29.8659 18.5984 27.9944 20.2166 25.7509 20.2166H23.8414C21.3102 20.2166 19.2508 18.1573 19.2508 15.626V11.0967C21.2409 10.7848 23.1209 10.1113 24.8452 9.0915C27.4705 7.53861 29.1545 5.50939 30.1707 3.90618C31.9095 5.45486 32.8987 7.67509 32.868 10.0101ZM27.0843 17.3999C27.0834 17.7001 26.8391 17.9441 26.5387 17.9441H25.1655C24.8646 17.9441 24.6198 17.6992 24.6198 17.3984C24.6198 17.0975 24.8647 16.8527 25.1655 16.8527H26.5387C26.839 16.8527 27.0833 17.0965 27.0843 17.3966V17.3999ZM16.8 9.91056C16.8 5.48079 20.4038 1.87697 24.8336 1.87697C26.4223 1.87697 27.9404 2.33556 29.2377 3.18931C28.3024 4.68845 26.7283 6.61626 24.2485 8.08314C22.5473 9.08939 20.6813 9.73181 18.7021 9.99259H18.6655C18.6653 9.99259 18.6651 9.99259 18.6648 9.99259C18.6645 9.99259 18.6643 9.99259 18.664 9.99259H16.7999V9.91056H16.8ZM14.5238 21.1902C13.9297 19.9248 14.1152 18.4705 15.0072 17.3958C16.1265 16.0473 16.8013 14.381 16.8 12.627V11.1645H18.0789V15.6262C18.0789 17.8206 19.3123 19.732 21.1218 20.7049C21.0086 21.6392 20.411 22.4554 19.5327 22.8373L18.6024 23.2418H17.7531C16.3555 23.2418 15.1181 22.4557 14.5238 21.1902ZM34.9212 30.2981L33.9423 39.5332H16.2398L15.2609 30.2981C15.2431 30.1307 15.2953 29.9696 15.4079 29.8445C15.5205 29.7194 15.6752 29.6505 15.8435 29.6505H34.3386C34.5069 29.6505 34.6616 29.7194 34.7742 29.8445C34.8868 29.9696 34.939 30.1307 34.9212 30.2981ZM38.6562 39.5332H35.1207L36.0866 30.4217C36.1391 29.9268 35.9782 29.4308 35.6455 29.0608C35.3126 28.6908 34.8363 28.4786 34.3386 28.4786H31.982V24.9057L35.9118 26.59C37.579 27.3291 38.6562 28.9845 38.6562 30.8074V39.5332ZM25.091 32.3652C23.8633 32.3652 22.8645 33.3641 22.8645 34.5918C22.8645 35.8195 23.8633 36.8184 25.091 36.8184C26.3187 36.8184 27.3176 35.8195 27.3176 34.5918C27.3176 33.3641 26.3187 32.3652 25.091 32.3652ZM25.091 35.6465C24.5095 35.6465 24.0363 35.1734 24.0363 34.5918C24.0363 34.0103 24.5095 33.5371 25.091 33.5371C25.6726 33.5371 26.1457 34.0103 26.1457 34.5918C26.1457 35.1734 25.6727 35.6465 25.091 35.6465Z" fill="black"/>
<path d="M10.1385 8.08564C10.4621 8.08564 10.7245 7.82329 10.7245 7.4997C10.7245 7.17611 10.4621 6.91376 10.1385 6.91376C9.81492 6.91376 9.55258 7.17611 9.55258 7.4997C9.55258 7.82329 9.81484 8.08564 10.1385 8.08564ZM5.45102 8.08564C5.77461 8.08564 6.03695 7.82329 6.03695 7.4997C6.03695 7.17611 5.77461 6.91376 5.45102 6.91376C5.12742 6.91376 4.86508 7.17611 4.86508 7.4997C4.86508 7.82329 5.12734 8.08564 5.45102 8.08564ZM7.79477 8.08564C8.11836 8.08564 8.3807 7.82329 8.3807 7.4997C8.3807 7.17611 8.11836 6.91376 7.79477 6.91376C7.47117 6.91376 7.20883 7.17611 7.20883 7.4997C7.20883 7.82329 7.47109 8.08564 7.79477 8.08564ZM7.66625 14.2929C7.66984 14.293 7.67344 14.293 7.67703 14.293L12.9746 14.2943H12.9749C13.3409 14.2943 13.6516 14.0572 13.7483 13.7042C13.845 13.3511 13.6982 12.9887 13.3832 12.8024L12.5775 12.3256C13.8725 11.0421 14.6009 9.29087 14.5893 7.45603C14.5661 3.78665 11.5628 0.758607 7.89453 0.705794C4.09336 0.651185 1 3.72595 1 7.49986C1 11.1188 3.98188 14.2145 7.66625 14.2929ZM3.84766 3.49517C4.92813 2.43017 6.35625 1.85634 7.87773 1.87751C10.9131 1.92119 13.3982 4.42697 13.4174 7.46337C13.4278 9.10157 12.7253 10.6595 11.49 11.7374C11.2834 11.9176 11.1752 12.188 11.2002 12.4607C11.2252 12.7333 11.3809 12.9792 11.6165 13.1185L11.6223 13.122L7.68281 13.121C4.63734 13.0626 2.17188 10.5537 2.17188 7.49986C2.17188 5.98259 2.76703 4.5604 3.84766 3.49517ZM40.4141 39.5332H39.8281V30.8074C39.8281 28.5213 38.4773 26.4454 36.3801 25.5158L33.2921 24.1923C34.0435 23.9552 34.7223 23.5324 35.2747 22.9459C36.108 22.0611 36.5859 20.8606 36.5859 19.652C36.5859 18.5416 36.198 17.4935 35.4638 16.6207C34.5455 15.5303 34.0398 14.1445 34.0398 12.7185V9.91064C34.0398 7.45142 33.0821 5.13986 31.3432 3.40181C29.6043 1.66275 27.2925 0.705091 24.8336 0.705091C19.7577 0.705091 15.6281 4.83462 15.6281 9.91056V12.627C15.6284 14.1026 15.0485 15.5111 14.1062 16.6465C12.9202 18.0754 12.6738 20.0074 13.4632 21.6884C14.0491 22.9362 15.106 23.8327 16.3713 24.2121L13.3048 25.5456C11.1535 26.4509 9.76336 28.5439 9.76336 30.8778V37.7755C9.76336 38.0991 10.0256 38.3614 10.3493 38.3614C10.673 38.3614 10.9352 38.0991 10.9352 37.7755V30.8778C10.9352 29.0167 12.0437 27.3476 13.7658 26.623L17.6094 24.9516V28.4785H15.8435C15.3459 28.4785 14.8695 28.6907 14.5366 29.0607C14.2038 29.4307 14.043 29.9267 14.0955 30.4216L15.0614 39.5332H1.58594C1.26227 39.5332 1 39.7956 1 40.1192C1 40.4427 1.26227 40.7051 1.58594 40.7051H40.4141C40.7377 40.7051 41 40.4427 41 40.1192C41 39.7956 40.7377 39.5332 40.4141 39.5332ZM34.5673 17.3752C35.1213 18.0338 35.4141 18.8211 35.4141 19.652C35.4141 20.565 35.0523 21.4727 34.4216 22.1424C33.7538 22.8513 32.8364 23.2418 31.8384 23.2418H31.0748L30.0717 22.8119C29.1955 22.4361 28.5962 21.6306 28.4737 20.7033C30.2816 19.7299 31.5134 17.8194 31.5134 15.6262V11.2213C31.6848 11.2329 31.8562 11.2392 32.027 11.2392C32.3088 11.2392 32.5895 11.2232 32.868 11.1917V12.7184C32.868 14.4202 33.4716 16.0742 34.5673 17.3752ZM24.976 26.6253C22.8798 26.6624 20.7995 26.3968 18.7812 25.837V24.442L18.9507 24.3683C18.952 24.3678 18.9534 24.3671 18.9548 24.3666L20.0001 23.912C21.1637 23.4062 21.9859 22.3701 22.2352 21.1593C22.7455 21.3077 23.284 21.3888 23.8415 21.3888H25.7508C26.3104 21.3888 26.8509 21.307 27.3629 21.1576C27.6204 22.3628 28.4458 23.3896 29.6099 23.889L30.7255 24.3671C30.7262 24.3674 30.727 24.3678 30.7277 24.368L30.8103 24.4034V25.7219C28.914 26.2869 26.9535 26.5908 24.976 26.6253ZM30.8102 26.9419V28.4786H18.7812V27.0505C20.6808 27.5485 22.6311 27.8006 24.5946 27.8006C24.7285 27.8006 24.8625 27.7994 24.9965 27.797C26.9645 27.7627 28.9163 27.4751 30.8102 26.9419ZM32.868 10.0101C31.254 10.2281 29.4347 9.79579 28.1813 8.82462C27.9255 8.6265 27.5575 8.67306 27.3592 8.92892C27.161 9.1847 27.2077 9.55275 27.4635 9.75095C28.283 10.3858 29.2713 10.833 30.3415 11.0585V14.2484C30.0599 14.8901 29.7465 15.4238 29.0398 16.0067C28.7423 16.2522 28.4167 16.456 28.068 16.6177C27.7832 16.062 27.2048 15.6806 26.5387 15.6806H25.1656C24.2185 15.6806 23.448 16.4512 23.448 17.3982C23.448 18.3452 24.2185 19.1158 25.1656 19.1158H26.5387C27.3358 19.1158 28.0077 18.57 28.2005 17.8327C28.9844 17.534 30.2624 16.4685 30.2627 16.4681C29.8659 18.5984 27.9944 20.2166 25.7509 20.2166H23.8414C21.3102 20.2166 19.2508 18.1573 19.2508 15.626V11.0967C21.2409 10.7848 23.1209 10.1113 24.8452 9.0915C27.4705 7.53861 29.1545 5.50939 30.1707 3.90618C31.9095 5.45486 32.8987 7.67509 32.868 10.0101ZM27.0843 17.3999C27.0834 17.7001 26.8391 17.9441 26.5387 17.9441H25.1655C24.8646 17.9441 24.6198 17.6992 24.6198 17.3984C24.6198 17.0975 24.8647 16.8527 25.1655 16.8527H26.5387C26.839 16.8527 27.0833 17.0965 27.0843 17.3966V17.3999ZM16.8 9.91056C16.8 5.48079 20.4038 1.87697 24.8336 1.87697C26.4223 1.87697 27.9404 2.33556 29.2377 3.18931C28.3024 4.68845 26.7283 6.61626 24.2485 8.08314C22.5473 9.08939 20.6813 9.73181 18.7021 9.99259H18.6655C18.6653 9.99259 18.6651 9.99259 18.6648 9.99259C18.6645 9.99259 18.6643 9.99259 18.664 9.99259H16.7999V9.91056H16.8ZM14.5238 21.1902C13.9297 19.9248 14.1152 18.4705 15.0072 17.3958C16.1265 16.0473 16.8013 14.381 16.8 12.627V11.1645H18.0789V15.6262C18.0789 17.8206 19.3123 19.732 21.1218 20.7049C21.0086 21.6392 20.411 22.4554 19.5327 22.8373L18.6024 23.2418H17.7531C16.3555 23.2418 15.1181 22.4557 14.5238 21.1902ZM34.9212 30.2981L33.9423 39.5332H16.2398L15.2609 30.2981C15.2431 30.1307 15.2953 29.9696 15.4079 29.8445C15.5205 29.7194 15.6752 29.6505 15.8435 29.6505H34.3386C34.5069 29.6505 34.6616 29.7194 34.7742 29.8445C34.8868 29.9696 34.939 30.1307 34.9212 30.2981ZM38.6562 39.5332H35.1207L36.0866 30.4217C36.1391 29.9268 35.9782 29.4308 35.6455 29.0608C35.3126 28.6908 34.8363 28.4786 34.3386 28.4786H31.982V24.9057L35.9118 26.59C37.579 27.3291 38.6562 28.9845 38.6562 30.8074V39.5332ZM25.091 32.3652C23.8633 32.3652 22.8645 33.3641 22.8645 34.5918C22.8645 35.8195 23.8633 36.8184 25.091 36.8184C26.3187 36.8184 27.3176 35.8195 27.3176 34.5918C27.3176 33.3641 26.3187 32.3652 25.091 32.3652ZM25.091 35.6465C24.5095 35.6465 24.0363 35.1734 24.0363 34.5918C24.0363 34.0103 24.5095 33.5371 25.091 33.5371C25.6726 33.5371 26.1457 34.0103 26.1457 34.5918C26.1457 35.1734 25.6727 35.6465 25.091 35.6465Z" stroke="black" stroke-width="0.2" mask="url(#path-1-outside-1_2110_583)"/>
</svg>
