<svg width="40" height="42" viewBox="0 0 40 42" fill="none" xmlns="http://www.w3.org/2000/svg">
<path d="M24.1612 13.2373C23.0517 12.1279 21.2465 12.128 20.1369 13.2373L18.6998 14.6746L17.2626 13.2373C16.1531 12.1279 14.3478 12.1279 13.2383 13.2373C12.1289 14.3469 12.1289 16.1521 13.2383 17.2617L14.6756 18.6988L13.2383 20.136C12.7025 20.6719 12.4073 21.3865 12.4073 22.1482C12.4073 22.9099 12.7025 23.6244 13.2383 24.1604C14.3478 25.2698 16.1531 25.2698 17.2626 24.1604L18.6998 22.7231L20.1369 24.1604C20.6917 24.7152 21.4203 24.9925 22.1491 24.9925C22.8777 24.9924 23.6065 24.715 24.1612 24.1604C24.6971 23.6245 24.9922 22.9099 24.9921 22.1482C24.9921 21.3865 24.697 20.6719 24.1612 20.136L22.7239 18.6988L24.1612 17.2617C25.2707 16.1521 25.2707 14.3469 24.1612 13.2373ZM23.0114 16.1118L20.9993 18.1239C20.8469 18.2764 20.7612 18.4832 20.7612 18.6988C20.7612 18.9144 20.8469 19.1212 20.9993 19.2737L23.0115 21.2858C23.2402 21.5145 23.3662 21.8208 23.3662 22.1481C23.3662 22.4754 23.2403 22.7817 23.0115 23.0104C22.536 23.4859 21.7623 23.4859 21.2869 23.0104L19.2747 20.9982C19.116 20.8395 18.9079 20.7601 18.6999 20.7601C18.4918 20.7601 18.2837 20.8395 18.125 20.9982L16.1128 23.0104C15.6373 23.4859 14.8636 23.4859 14.3882 23.0104C14.1595 22.7817 14.0334 22.4754 14.0334 22.1481C14.0334 21.8208 14.1594 21.5145 14.3882 21.2858L16.4003 19.2736C16.7178 18.9561 16.7178 18.4413 16.4003 18.1238L14.3882 16.1117C13.9126 15.6362 13.9126 14.8625 14.3882 14.3871C14.8636 13.9116 15.6373 13.9116 16.1128 14.3871L18.1249 16.3992C18.2773 16.5517 18.4842 16.6373 18.6998 16.6373C18.9154 16.6373 19.1222 16.5517 19.2747 16.3992L21.2867 14.3871C21.7623 13.9116 22.536 13.9117 23.0113 14.3871C23.4869 14.8626 23.4869 15.6364 23.0114 16.1118Z" fill="black"/>
<path d="M37.6208 26.5462C37.25 26.5462 36.8987 26.6308 36.5856 26.7814C36.42 26.4761 36.1878 26.2118 35.9094 26.0055C36.8842 23.7045 37.3983 21.1954 37.3983 18.6991C37.3983 15.0385 36.3393 11.4921 34.3357 8.44322C34.0892 8.0681 33.5852 7.96379 33.2098 8.21029C32.8346 8.45688 32.7303 8.96094 32.9769 9.33622C34.8057 12.1191 35.7723 15.3567 35.7723 18.6991C35.7723 21.0401 35.2781 23.3936 34.3405 25.5408C34.031 25.5597 33.7372 25.6374 33.4707 25.7629C33.3105 25.4562 33.0835 25.1895 32.8102 24.9795C33.6855 23.0093 34.1464 20.8547 34.1464 18.6991C34.1464 10.1815 27.2169 3.25202 18.6993 3.25202C10.1817 3.25202 3.25218 10.1815 3.25218 18.6991C3.25218 21.4746 3.99763 24.1973 5.40803 26.5728C5.55998 26.8288 5.8303 26.9709 6.10786 26.9709C6.249 26.9709 6.39201 26.9341 6.52217 26.8568C6.90826 26.6276 7.03542 26.1288 6.80615 25.7427C5.54469 23.6183 4.87803 21.1827 4.87803 18.6991C4.87803 11.0782 11.0782 4.87803 18.6991 4.87803C26.3201 4.87803 32.5202 11.0782 32.5202 18.6991C32.5202 20.6904 32.0805 22.6806 31.247 24.4895C31.0232 24.4997 30.8069 24.5386 30.6031 24.6062V21.3117C30.6031 19.9609 29.4945 18.862 28.1319 18.862C26.7693 18.862 25.6607 19.9609 25.6607 21.3117V29.9898C25.1757 30.2826 24.8517 30.6728 24.6858 31.1553C22.8249 32.0487 20.7631 32.5202 18.6991 32.5202C16.2162 32.5202 13.7807 31.8536 11.656 30.5925C11.2698 30.3632 10.7711 30.4905 10.5419 30.8767C10.3127 31.2628 10.44 31.7616 10.8261 31.9908C13.2018 33.4008 15.9242 34.1462 18.6991 34.1462C20.7476 34.1462 22.7938 33.7297 24.6829 32.9376C24.6938 32.982 24.7032 33.0256 24.7155 33.0708C24.7166 33.075 24.7179 33.0792 24.7191 33.0834L25.132 34.5125C23.0832 35.3477 20.9227 35.7722 18.6991 35.7722C9.285 35.7722 1.62601 28.1132 1.62601 18.6991C1.62601 9.285 9.285 1.62601 18.6991 1.62601C22.0423 1.62601 25.2801 2.59275 28.0624 4.42169C28.4377 4.66852 28.9417 4.56413 29.1884 4.18893C29.4351 3.81372 29.3308 3.30966 28.9557 3.06291C25.9073 1.05918 22.3606 0 18.6991 0C13.7043 0 9.00858 1.94503 5.47681 5.47681C1.94503 9.00866 0 13.7043 0 18.6991C0 23.6939 1.94503 28.3896 5.47681 31.9214C9.00858 35.4532 13.7043 37.3982 18.6991 37.3982C21.0771 37.3982 23.3892 36.9556 25.5858 36.0831L26.1744 38.12V39.7218C26.1744 40.7718 27.035 41.6259 28.0929 41.6259H36.3842C37.442 41.6259 38.3027 40.7717 38.3027 39.7218V38.28L39.1387 37.1861C39.8756 36.2219 40 35.5199 40 34.3111V28.9051C39.9998 27.6044 38.9326 26.5462 37.6208 26.5462ZM38.3738 34.3111C38.3738 35.3599 38.2615 35.656 37.8467 36.1988L36.8437 37.5113C36.7353 37.6531 36.6766 37.8265 36.6766 38.005V39.7219C36.6766 39.8726 36.5427 40 36.3841 40H28.0928C27.9343 40 27.8003 39.8726 27.8003 39.7219V38.005C27.8003 37.9286 27.7896 37.8526 27.7683 37.7793L26.283 32.6385C26.0178 31.6565 26.3139 31.4878 26.5302 31.3646L26.8761 31.1675C27.1299 31.0229 27.2866 30.7532 27.2866 30.4612V21.3117C27.2866 20.8575 27.6657 20.488 28.1318 20.488C28.5978 20.488 28.977 20.8575 28.977 21.3117V28.5358C28.977 28.9848 29.3409 29.3488 29.79 29.3488C30.239 29.3488 30.603 28.9848 30.603 28.5358V26.8439C30.603 26.4398 30.9409 26.111 31.3561 26.111C31.7714 26.111 32.1092 26.4397 32.1092 26.8439V27.8948C32.1092 28.3438 32.4732 28.7078 32.9222 28.7078C33.3712 28.7078 33.7352 28.3438 33.7352 27.8948C33.7352 27.4907 34.0731 27.1619 34.4884 27.1619C34.9036 27.1619 35.2415 27.4907 35.2415 27.8948V28.9051C35.2415 29.3541 35.6055 29.7181 36.0545 29.7181C36.5035 29.7181 36.8675 29.3541 36.8675 28.9051C36.8675 28.501 37.2054 28.1722 37.6207 28.1722C38.0359 28.1722 38.3737 28.501 38.3737 28.9051V34.3111H38.3738Z" fill="black"/>
<path d="M31.3461 6.8646C31.5671 6.8646 31.7875 6.77493 31.9479 6.5985C32.2499 6.26631 32.2254 5.75208 31.8932 5.45005L31.8927 5.44964C31.5606 5.14761 31.0465 5.17224 30.7445 5.50452C30.4425 5.83671 30.4672 6.35111 30.7994 6.65314C30.9553 6.79476 31.151 6.8646 31.3461 6.8646Z" fill="black"/>
<path d="M8.92697 29.6226C9.24445 29.3051 9.24445 28.7903 8.92697 28.4728L8.92656 28.4724C8.60908 28.1549 8.09461 28.1551 7.77705 28.4726C7.45957 28.79 7.45981 29.3051 7.77729 29.6226C7.93607 29.7813 8.14412 29.8607 8.35217 29.8607C8.56022 29.8607 8.76819 29.7813 8.92697 29.6226Z" fill="black"/>
</svg>
