<svg width="50" height="50" viewBox="0 0 50 50" fill="none" xmlns="http://www.w3.org/2000/svg">
<circle cx="25" cy="25" r="25" fill="#295F98"/>
<path d="M32.9106 19.0244H32.3842V23.1168C32.3842 26.1487 29.9175 28.6154 26.8855 28.6154H19.0273V29.142C19.0273 31.3985 20.8632 33.2342 23.1197 33.2342H31.5263L35.8497 36.837C35.9784 36.9443 36.1385 37 36.3 37C36.6865 37 37.0029 36.6863 37.0029 36.2969V23.1168C37.0029 20.8568 35.1746 19.0244 32.9106 19.0244Z" fill="white"/>
<path d="M30.9756 23.1174V17.0923C30.9756 14.8284 29.1434 13 26.8833 13H17.0923C14.8284 13 13 14.8322 13 17.0923V30.2724C13 30.6617 13.3164 30.9756 13.703 30.9756C13.8645 30.9756 14.0245 30.9199 14.1532 30.8124L18.4767 27.2097H26.8833C29.1397 27.2097 30.9756 25.3741 30.9756 23.1174ZM21.9878 24.1972C21.5996 24.1972 21.2847 23.8823 21.2847 23.4941C21.2847 23.1059 21.5996 22.7909 21.9878 22.7909C22.3758 22.7909 22.6909 23.1059 22.6909 23.4941C22.6909 23.8823 22.3758 24.1972 21.9878 24.1972ZM22.6909 21.0874V21.2347C22.6909 21.6229 22.376 21.9378 21.9878 21.9378C21.5994 21.9378 21.2847 21.6229 21.2847 21.2347V20.4815C21.2847 20.0932 21.5994 19.7784 21.9878 19.7784C22.6382 19.7784 23.1674 19.249 23.1674 18.5986C23.1674 17.948 22.6382 17.4188 21.9878 17.4188C21.6721 17.4188 21.376 17.5415 21.1534 17.7642C20.9307 17.9868 20.808 18.2829 20.808 18.5977C20.808 18.9861 20.4932 19.3014 20.1049 19.3014C19.7165 19.3014 19.4017 18.9868 19.4017 18.5986V18.5977C19.4017 17.9074 19.6707 17.2581 20.1589 16.7699C20.6472 16.2815 21.2964 16.0125 21.9869 16.0125C23.4137 16.0125 24.5737 17.1727 24.5737 18.5986C24.5737 19.7809 23.7762 20.7805 22.6909 21.0874Z" fill="white"/>
</svg>
