<svg width="40" height="41" viewBox="0 0 40 41" fill="none" xmlns="http://www.w3.org/2000/svg">
<path d="M7.33046 12.1491H3.70613C3.35962 12.1491 3.07868 12.4301 3.07868 12.7766V16.4008C3.07868 16.7473 3.35962 17.0283 3.70613 17.0283H7.33038C7.67689 17.0283 7.95784 16.7473 7.95784 16.4008V12.7766C7.95791 12.4301 7.67697 12.1491 7.33046 12.1491ZM6.70301 15.7735H4.33359V13.4041H6.70293L6.70301 15.7735ZM13.2656 12.1491H9.64137C9.29486 12.1491 9.01392 12.4301 9.01392 12.7766V16.4008C9.01392 16.7473 9.29486 17.0283 9.64137 17.0283H13.2656C13.6121 17.0283 13.8931 16.7473 13.8931 16.4008V12.7766C13.8931 12.4301 13.6121 12.1491 13.2656 12.1491ZM12.6382 15.7735H10.2688V13.4041H12.6382V15.7735ZM15.5765 17.0284H19.2007C19.5472 17.0284 19.8282 16.7474 19.8282 16.4009V12.7767C19.8282 12.4301 19.5472 12.1492 19.2007 12.1492H15.5765C15.2299 12.1492 14.949 12.4301 14.949 12.7767V16.4009C14.949 16.7474 15.2299 17.0284 15.5765 17.0284ZM16.2039 13.404H18.5732V15.7734H16.2039V13.404ZM7.33046 18.5116H3.70613C3.35962 18.5116 3.07868 18.7925 3.07868 19.139V22.7633C3.07868 23.1098 3.35962 23.3907 3.70613 23.3907H7.33038C7.67689 23.3907 7.95784 23.1098 7.95784 22.7633V19.139C7.95791 18.7924 7.67697 18.5116 7.33046 18.5116ZM6.70301 22.1358H4.33359V19.7665H6.70293L6.70301 22.1358ZM13.2656 18.5116H9.64137C9.29486 18.5116 9.01392 18.7925 9.01392 19.139V22.7633C9.01392 23.1098 9.29486 23.3907 9.64137 23.3907H13.2656C13.6121 23.3907 13.8931 23.1098 13.8931 22.7633V19.139C13.8931 18.7924 13.6121 18.5116 13.2656 18.5116ZM12.6382 22.1358H10.2688V19.7665H12.6382V22.1358ZM7.33046 24.874H3.70613C3.35962 24.874 3.07868 25.1549 3.07868 25.5014V29.1257C3.07868 29.4722 3.35962 29.7531 3.70613 29.7531H7.33038C7.67689 29.7531 7.95784 29.4722 7.95784 29.1257V25.5014C7.95791 25.1549 7.67697 24.874 7.33046 24.874ZM6.70301 28.4982H4.33359V26.1289H6.70293L6.70301 28.4982ZM13.2656 24.874H9.64137C9.29486 24.874 9.01392 25.1549 9.01392 25.5014V29.1257C9.01392 29.4722 9.29486 29.7531 9.64137 29.7531H13.2656C13.6121 29.7531 13.8931 29.4722 13.8931 29.1257V25.5014C13.8931 25.1549 13.6121 24.874 13.2656 24.874ZM12.6382 28.4982H10.2688V26.1289H12.6382V28.4982ZM30.4514 23.7667C30.0012 23.7667 29.5779 23.942 29.2596 24.2604L26.042 27.478L25.3309 26.5831C24.7531 25.8566 23.6919 25.7354 22.9654 26.313C22.2388 26.8907 22.1177 27.9519 22.6952 28.6783L24.5288 30.9857C24.8159 31.386 25.2604 31.6397 25.752 31.6831C25.8018 31.6875 25.8516 31.6897 25.901 31.6897C26.3458 31.6897 26.7729 31.5141 27.0909 31.1961L31.6431 26.6439C32.3002 25.9867 32.3002 24.9175 31.6431 24.2603C31.3249 23.9421 30.9017 23.7667 30.4514 23.7667ZM30.7559 25.7567L26.2037 30.3088C26.0803 30.4323 25.9368 30.4398 25.8624 30.4331C25.7872 30.4265 25.6459 30.3939 25.5454 30.2498C25.5379 30.2392 25.5302 30.2288 25.5221 30.2187L23.6777 27.8976C23.5306 27.7126 23.5615 27.4424 23.7464 27.2954C23.8251 27.2328 23.9192 27.2024 24.0128 27.2024C24.139 27.2024 24.2642 27.2579 24.3486 27.3641L25.4972 28.8095C25.6084 28.9495 25.7741 29.0354 25.9527 29.0456C26.131 29.0559 26.3057 28.9893 26.4321 28.8628L30.1471 25.1479C30.2284 25.0666 30.3365 25.0218 30.4515 25.0218C30.5665 25.0218 30.6746 25.0666 30.7559 25.1479C30.9237 25.3157 30.9237 25.5888 30.7559 25.7567ZM27.4746 19.8764C23.2782 19.8764 19.8641 23.2904 19.8641 27.4869C19.8641 31.6833 23.2781 35.0975 27.4746 35.0975C31.6711 35.0975 35.0852 31.6834 35.0852 27.4869C35.0851 23.2904 31.671 19.8764 27.4746 19.8764ZM27.4746 33.8425C23.9701 33.8425 21.119 30.9914 21.119 27.4869C21.119 23.9823 23.9701 21.1313 27.4746 21.1313C30.9791 21.1313 33.8303 23.9824 33.8303 27.4869C33.8302 30.9914 30.9791 33.8425 27.4746 33.8425ZM39.3727 24.874H37.8825C37.6271 23.8516 37.2245 22.8804 36.6812 21.9757L37.7355 20.9213C37.9805 20.6763 37.9805 20.279 37.7355 20.034L34.9277 17.2261C34.883 17.1813 34.8321 17.1441 34.7772 17.1151V5.01521C34.7772 4.07874 34.0154 3.31685 33.079 3.31685H31.5039V2.00273C31.5039 1.2872 30.9218 0.705078 30.2063 0.705078H28.8031C28.0876 0.705078 27.5054 1.2872 27.5054 2.00273V3.31677H23.4265V2.00273C23.4265 1.2872 22.8444 0.705078 22.129 0.705078H20.7257C20.0102 0.705078 19.4281 1.2872 19.4281 2.00273V3.31677H15.3491V2.00273C15.3491 1.2872 14.767 0.705078 14.0515 0.705078H12.6483C11.9328 0.705078 11.3506 1.2872 11.3506 2.00273V3.31677H7.27171V2.00273C7.27171 1.2872 6.68967 0.705078 5.97422 0.705078H4.57092C3.85539 0.705078 3.27327 1.2872 3.27327 2.00273V3.31677H1.69852C0.761964 3.31685 0 4.07874 0 5.01521V31.4636C0 32.4001 0.761964 33.162 1.69852 33.162H18.1042L17.2137 34.0525C16.9687 34.2975 16.9686 34.6948 17.2137 34.9398L20.0216 37.7478C20.1392 37.8655 20.2989 37.9316 20.4653 37.9316C20.6316 37.9316 20.7913 37.8655 20.9089 37.7478L21.9635 36.6932C22.8685 37.2368 23.8396 37.6393 24.8616 37.8946V39.385C24.8616 39.7315 25.1425 40.0125 25.489 40.0125H29.46C29.8065 40.0125 30.0875 39.7315 30.0875 39.385V37.8946C31.1098 37.6393 32.081 37.2368 32.9857 36.6934L34.0401 37.7478C34.2852 37.9928 34.6824 37.9928 34.9274 37.7478L37.7354 34.9399C37.8531 34.8222 37.9192 34.6626 37.9192 34.4962C37.9192 34.3298 37.8531 34.1702 37.7354 34.0525L36.6809 32.998C37.2245 32.0929 37.627 31.1217 37.8823 30.0998H39.3725C39.7191 30.0998 40 29.8188 40 29.4723V25.5013C40.0002 25.1549 39.7192 24.874 39.3727 24.874ZM28.7603 2.00273C28.7603 1.98038 28.7807 1.95999 28.803 1.95999H30.2062C30.2282 1.95999 30.2489 1.98077 30.2489 2.00273V5.8858C30.2489 5.90777 30.2282 5.92855 30.2062 5.92855H28.803C28.7807 5.92855 28.7603 5.90816 28.7603 5.8858V2.00273ZM20.6829 2.00273C20.6829 1.98038 20.7033 1.95999 20.7257 1.95999H22.1289C22.1508 1.95999 22.1715 1.98077 22.1715 2.00273V5.8858C22.1715 5.90777 22.1508 5.92855 22.1289 5.92855H20.7257C20.7033 5.92855 20.6829 5.90816 20.6829 5.8858V2.00273ZM12.6055 2.00273C12.6055 1.98038 12.6259 1.95999 12.6483 1.95999H14.0515C14.0735 1.95999 14.0942 1.98077 14.0942 2.00273V5.8858C14.0942 5.90777 14.0735 5.92855 14.0515 5.92855H12.6483C12.6259 5.92855 12.6055 5.90816 12.6055 5.8858V2.00273ZM4.52817 2.00273C4.52817 1.98038 4.54857 1.95999 4.57092 1.95999H5.97414C5.99602 1.95999 6.01673 1.98077 6.01673 2.00273V5.8858C6.01673 5.90777 5.99602 5.92855 5.97414 5.92855H4.57092C4.54896 5.92855 4.52817 5.90777 4.52817 5.8858V2.00273ZM1.69852 4.57176H3.27327V5.88588C3.27327 6.60142 3.85539 7.18353 4.57092 7.18353H5.97414C6.68959 7.18353 7.27164 6.60142 7.27164 5.88588V4.57176H11.3506V5.88588C11.3506 6.60142 11.9327 7.18353 12.6482 7.18353H14.0514C14.767 7.18353 15.349 6.60142 15.349 5.88588V4.57176H19.4279V5.88588C19.4279 6.60142 20.01 7.18353 20.7256 7.18353H22.1288C22.8442 7.18353 23.4264 6.60142 23.4264 5.88588V4.57176H27.5053V5.88588C27.5053 6.60142 28.0874 7.18353 28.8029 7.18353H30.2062C30.9217 7.18353 31.5037 6.60142 31.5037 5.88588V4.57176H33.0788C33.3233 4.57176 33.5221 4.77066 33.5221 5.01521V8.74032H1.25491V5.01521C1.25491 4.77066 1.45389 4.57176 1.69852 4.57176ZM1.25491 31.4636V9.99523H33.5221V17.7441L32.9858 18.2804C32.0807 17.7369 31.1095 17.3343 30.0876 17.0791V17.0284H31.071C31.4175 17.0284 31.6985 16.7474 31.6985 16.4009V12.7767C31.6985 12.4301 31.4175 12.1492 31.071 12.1492H27.4468C27.1003 12.1492 26.8193 12.4301 26.8193 12.7767V14.9614H25.7634V12.7767C25.7634 12.4301 25.4825 12.1492 25.1359 12.1492H21.5117C21.1652 12.1492 20.8842 12.4301 20.8842 12.7767V16.4009C20.8842 16.7474 21.1652 17.0284 21.5117 17.0284H24.8617V17.0791C23.8394 17.3345 22.8681 17.7371 21.9635 18.2804L20.9091 17.2261C20.6641 16.981 20.2668 16.9811 20.0218 17.2261L18.7362 18.5116H15.5765C15.23 18.5116 14.9491 18.7925 14.9491 19.139V22.7633C14.9491 23.1098 15.23 23.3907 15.5765 23.3907H17.5557C17.357 23.8714 17.1937 24.3663 17.067 24.874H15.5766C15.2301 24.874 14.9492 25.1549 14.9492 25.5014V29.4724C14.9492 29.8189 15.2301 30.0999 15.5766 30.0999H17.067C17.2226 30.7225 17.4334 31.3258 17.6967 31.9071H1.69852C1.45389 31.9071 1.25491 31.7082 1.25491 31.4636ZM29.4601 14.9614H28.0742V13.4041H30.4436V15.7735H30.0876V15.5888C30.0876 15.2422 29.8066 14.9614 29.4601 14.9614ZM24.5084 13.404V15.7734H22.1391V13.404H24.5084ZM17.2137 20.9213L18.2682 21.9758C18.2364 22.0287 18.2068 22.0826 18.176 22.1359H16.2039V19.7666H17.4812L17.2137 20.0341C17.0961 20.1517 17.0299 20.3114 17.0299 20.4778C17.0299 20.6442 17.0961 20.8037 17.2137 20.9213ZM38.7453 28.845H37.3804C37.0812 28.845 36.8235 29.0562 36.765 29.3497C36.5229 30.5645 36.0503 31.7046 35.3605 32.7385C35.1943 32.9873 35.2271 33.3189 35.4387 33.5304L36.4045 34.4962L34.4839 36.4168L33.5181 35.451C33.3065 35.2393 32.9749 35.2067 32.7261 35.3728C31.693 36.0624 30.5529 36.5349 29.3374 36.7772C29.0439 36.8358 28.8326 37.0934 28.8326 37.3926V38.7576H26.1165V37.3926C26.1165 37.0934 25.9052 36.8357 25.6117 36.7772C24.397 36.5351 23.2569 36.0625 22.2231 35.3726C21.9743 35.2066 21.6428 35.2393 21.4311 35.4509L20.4653 36.4168L18.5447 34.4962L19.5106 33.5303C19.7222 33.3188 19.7549 32.9872 19.5888 32.7383C18.8992 31.7051 18.4267 30.565 18.1843 29.3497C18.1258 29.0563 17.8681 28.845 17.5689 28.845H16.2038V26.1289H17.5689C17.8681 26.1289 18.1257 25.9176 18.1842 25.6241C18.4263 24.4093 18.8989 23.2692 19.5887 22.2354C19.7548 21.9865 19.722 21.655 19.5104 21.4434L18.5446 20.4776L20.4653 18.5571L21.431 19.5229C21.6426 19.7345 21.9741 19.7671 22.223 19.6011C23.256 18.9115 24.3962 18.439 25.6116 18.1964C25.905 18.1379 26.1163 17.8804 26.1163 17.5811V16.2163H28.8324V17.5811C28.8324 17.8804 29.0437 18.138 29.3372 18.1965C30.552 18.4386 31.6921 18.9113 32.7259 19.6011C32.9749 19.7671 33.3064 19.7345 33.5179 19.5228L34.4837 18.5571L36.4042 20.4777L35.4385 21.4434C35.2269 21.655 35.1942 21.9866 35.3603 22.2354C36.0499 23.2685 36.5224 24.4087 36.7649 25.6242C36.8234 25.9176 37.0809 26.1289 37.3801 26.1289H38.7453V28.845Z" fill="black"/>
</svg>
