<svg width="42" height="41" viewBox="0 0 42 41" fill="none" xmlns="http://www.w3.org/2000/svg">
<path d="M21 3.15527C21.3729 3.15527 21.6748 3.45715 21.6748 3.83008V13.2051C21.6748 13.578 21.3729 13.8799 21 13.8799H1.625C1.25207 13.8799 0.950195 13.578 0.950195 13.2051V3.83008C0.950195 3.45715 1.25207 3.15527 1.625 3.15527H21ZM2.2998 12.5303H20.3252V4.50488H2.2998V12.5303Z" fill="black" stroke="black" stroke-width="0.1"/>
<path d="M5.375 0.655273C5.74793 0.655273 6.0498 0.957151 6.0498 1.33008V3.83008C6.0498 4.203 5.74793 4.50488 5.375 4.50488C5.00207 4.50488 4.7002 4.203 4.7002 3.83008V1.33008C4.7002 0.957151 5.00207 0.655273 5.375 0.655273Z" fill="black" stroke="black" stroke-width="0.1"/>
<path d="M17.4062 0.655273C17.7792 0.655273 18.0811 0.957151 18.0811 1.33008V3.83008C18.0811 4.203 17.7792 4.50488 17.4062 4.50488C17.0333 4.50488 16.7314 4.203 16.7314 3.83008V1.33008C16.7314 0.957151 17.0333 0.655273 17.4062 0.655273Z" fill="black" stroke="black" stroke-width="0.1"/>
<path d="M9.125 6.28027C9.49793 6.28027 9.7998 6.58215 9.7998 6.95508C9.7998 7.328 9.49793 7.62988 9.125 7.62988H4.125C3.75207 7.62988 3.4502 7.328 3.4502 6.95508C3.4502 6.58215 3.75207 6.28027 4.125 6.28027H9.125Z" fill="black" stroke="black" stroke-width="0.1"/>
<path d="M18.5 6.28027C18.8729 6.28027 19.1748 6.58215 19.1748 6.95508C19.1748 7.328 18.8729 7.62988 18.5 7.62988H12.875C12.5021 7.62988 12.2002 7.328 12.2002 6.95508C12.2002 6.58215 12.5021 6.28027 12.875 6.28027H18.5Z" fill="black" stroke="black" stroke-width="0.1"/>
<path d="M18.5 9.40527C18.8729 9.40527 19.1748 9.70715 19.1748 10.0801C19.1748 10.453 18.8729 10.7549 18.5 10.7549H4.125C3.75207 10.7549 3.4502 10.453 3.4502 10.0801C3.4502 9.70715 3.75207 9.40527 4.125 9.40527H18.5Z" fill="black" stroke="black" stroke-width="0.1"/>
<path d="M37.875 28.7803C38.2479 28.7803 38.5498 29.0822 38.5498 29.4551V40.0801C38.5498 40.453 38.2479 40.7549 37.875 40.7549H10.375C10.0021 40.7549 9.7002 40.453 9.7002 40.0801V29.4551C9.7002 29.0822 10.0021 28.7803 10.375 28.7803H37.875ZM11.0498 39.4053H37.2002V30.1299H11.0498V39.4053Z" fill="black" stroke="black" stroke-width="0.1"/>
<path d="M40.375 26.2803C40.7479 26.2803 41.0498 26.5822 41.0498 26.9551V29.4551C41.0498 29.828 40.7479 30.1299 40.375 30.1299H7.875C7.50207 30.1299 7.2002 29.828 7.2002 29.4551V26.9551C7.2002 26.5822 7.50207 26.2803 7.875 26.2803H40.375ZM8.5498 28.7803H39.7002V27.6299H8.5498V28.7803Z" fill="black" stroke="black" stroke-width="0.1"/>
<path d="M20.375 16.2803C20.7479 16.2803 21.0498 16.5822 21.0498 16.9551V24.4551C21.0498 24.828 20.7479 25.1299 20.375 25.1299H9.125C8.75207 25.1299 8.4502 24.828 8.4502 24.4551V16.9551C8.4502 16.5822 8.75207 16.2803 9.125 16.2803H20.375ZM9.7998 23.7803H19.7002V17.6299H9.7998V23.7803Z" fill="black" stroke="black" stroke-width="0.1"/>
<path d="M16 23.7803C16.3094 23.7804 16.5791 23.991 16.6543 24.291L17.2793 26.791C17.3236 26.9676 17.2942 27.1533 17.2002 27.3066L17.1562 27.3701C17.0295 27.5339 16.8325 27.6299 16.625 27.6299H12.25C12.0425 27.6297 11.8459 27.5336 11.7178 27.3701C11.5897 27.2065 11.5452 26.9932 11.5947 26.792V26.791L12.2197 24.291C12.2949 23.9908 12.5654 23.7803 12.875 23.7803H16ZM13.1152 26.2803H15.7617L15.4746 25.1299H13.4023L13.1152 26.2803Z" fill="black" stroke="black" stroke-width="0.1"/>
<path d="M30.375 18.7803C33.1596 18.7803 35.4248 21.0454 35.4248 23.8301V26.9551C35.4248 27.328 35.1229 27.6299 34.75 27.6299H26C25.6271 27.6299 25.3252 27.328 25.3252 26.9551V23.8301C25.3252 21.0454 27.5904 18.7803 30.375 18.7803ZM30.375 20.1299C28.3346 20.1299 26.6748 21.7897 26.6748 23.8301V26.2803H34.0752V23.8301C34.0752 21.7897 32.4154 20.1299 30.375 20.1299Z" fill="black" stroke="black" stroke-width="0.1"/>
<path d="M30.375 13.7803C32.1261 13.7803 33.5498 15.204 33.5498 16.9551C33.5498 18.7061 32.1261 20.1299 30.375 20.1299C28.6239 20.1299 27.2002 18.7061 27.2002 16.9551C27.2002 15.204 28.6239 13.7803 30.375 13.7803ZM30.375 15.1299C29.369 15.1299 28.5498 15.9491 28.5498 16.9551C28.5498 17.9611 29.369 18.7803 30.375 18.7803C31.381 18.7803 32.2002 17.9611 32.2002 16.9551C32.2002 15.9491 31.381 15.1299 30.375 15.1299Z" fill="black" stroke="black" stroke-width="0.1"/>
<path d="M37.875 31.9053C38.2479 31.9053 38.5498 32.2072 38.5498 32.5801C38.5498 32.953 38.2479 33.2549 37.875 33.2549H10.375C10.0021 33.2549 9.7002 32.953 9.7002 32.5801C9.7002 32.2072 10.0021 31.9053 10.375 31.9053H37.875Z" fill="black" stroke="black" stroke-width="0.1"/>
</svg>
