<svg width="42" height="42" viewBox="0 0 42 42" fill="none" xmlns="http://www.w3.org/2000/svg">
<path d="M12.333 18.9482C12.7285 18.9485 13.0488 19.2694 13.0488 19.665V26.3301C13.0488 26.7257 12.7286 27.0466 12.333 27.0469H7.66699C7.27125 27.0469 6.9502 26.7258 6.9502 26.3301V19.665C6.9502 19.2693 7.27125 18.9482 7.66699 18.9482H12.333ZM8.38281 25.6133H11.6162V20.3809H8.38281V25.6133Z" fill="black" stroke="black" stroke-width="0.1"/>
<path d="M23.6631 18.9473C24.0586 18.9475 24.3789 19.2685 24.3789 19.6641V26.3291C24.3789 26.7247 24.0586 27.0457 23.6631 27.0459H18.9971C18.6013 27.0459 18.2803 26.7248 18.2803 26.3291V19.6641C18.2803 19.2683 18.6013 18.9473 18.9971 18.9473H23.6631ZM19.7129 25.6123H22.9463V20.3799H19.7129V25.6123Z" fill="black" stroke="black" stroke-width="0.1"/>
<path d="M23.6631 29.6123C24.0586 29.6125 24.3789 29.9336 24.3789 30.3291V36.9941C24.3789 37.3897 24.0586 37.7107 23.6631 37.7109H18.9971C18.6013 37.7109 18.2803 37.3899 18.2803 36.9941V30.3291C18.2803 29.9334 18.6013 29.6123 18.9971 29.6123H23.6631ZM19.7129 36.2773H22.9463V31.0449H19.7129V36.2773Z" fill="black" stroke="black" stroke-width="0.1"/>
<path d="M34.3291 18.9482C34.7246 18.9485 35.0449 19.2694 35.0449 19.665V26.3301C35.0449 26.7257 34.7246 27.0466 34.3291 27.0469H29.6631C29.2673 27.0469 28.9463 26.7258 28.9463 26.3301V19.665C28.9463 19.2693 29.2673 18.9482 29.6631 18.9482H34.3291ZM30.3789 25.6133H33.6123V20.3809H30.3789V25.6133Z" fill="black" stroke="black" stroke-width="0.1"/>
<path d="M12.333 29.6123C12.7286 29.6125 13.0488 29.9336 13.0488 30.3291V36.9941C13.0488 37.3897 12.7286 37.7107 12.333 37.7109H7.66699C7.27125 37.7109 6.9502 37.3899 6.9502 36.9941V30.3291C6.9502 29.9334 7.27125 29.6123 7.66699 29.6123H12.333ZM8.38281 36.2773H11.6162V31.0449H8.38281V36.2773Z" fill="black" stroke="black" stroke-width="0.1"/>
<path d="M34.3291 29.6123C34.7246 29.6125 35.0449 29.9336 35.0449 30.3291V36.9941C35.0449 37.3897 34.7246 37.7107 34.3291 37.7109H29.6631C29.2673 37.7109 28.9463 37.3899 28.9463 36.9941V30.3291C28.9463 29.9334 29.2673 29.6123 29.6631 29.6123H34.3291ZM30.3789 36.2773H33.6123V31.0449H30.3789V36.2773Z" fill="black" stroke="black" stroke-width="0.1"/>
<path d="M35.6621 0.950195C36.0577 0.950406 36.3779 1.27138 36.3779 1.66699V8.94922H37.6611C38.0567 8.94922 38.3777 9.2695 38.3779 9.66504V12.2812H38.9941C39.3898 12.2812 39.7108 12.6024 39.7109 12.998V16.3311C39.7109 16.7268 39.3899 17.0479 38.9941 17.0479H38.3779V39.6113H41.0498V41.0439H0.950195V39.6113H3.61621V17.0479H3C2.60427 17.0479 2.28323 16.7268 2.2832 16.3311V12.998C2.28329 12.6024 2.60431 12.2812 3 12.2812H3.61621V9.66504C3.6164 9.26946 3.93739 8.94922 4.33301 8.94922H5.61621V1.66699C5.61621 1.27125 5.93727 0.950195 6.33301 0.950195H35.6621ZM5.0498 39.6113H36.9453V17.0479H5.0498V39.6113ZM3.7168 15.6143H38.2783V13.7148H3.7168V15.6143ZM5.0498 12.2812H36.9443V10.3818H5.0498V12.2812ZM7.04883 8.94922H34.9453V2.38281H7.04883V8.94922Z" fill="black" stroke="black" stroke-width="0.1"/>
<path d="M17.9355 3.23145C18.2692 3.23145 18.5749 3.28865 18.8516 3.40332C19.1273 3.51771 19.3646 3.67583 19.5615 3.87793C19.7585 4.07994 19.9112 4.31992 20.0195 4.59668C20.1278 4.87382 20.1816 5.17449 20.1816 5.49805C20.1816 5.82156 20.128 6.12223 20.0195 6.39941C19.9113 6.6762 19.7583 6.91618 19.5615 7.11914C19.3645 7.32232 19.1276 7.48133 18.8516 7.59473C18.5749 7.7084 18.2691 7.76465 17.9355 7.76465C17.602 7.7646 17.2961 7.70844 17.0186 7.59473C16.7417 7.48129 16.5037 7.32324 16.3057 7.12012C16.1078 6.91704 15.955 6.67624 15.8467 6.39941C15.7382 6.12222 15.6846 5.82157 15.6846 5.49805C15.6846 5.17454 15.7383 4.87386 15.8467 4.59668C15.955 4.31978 16.1078 4.07898 16.3057 3.87598C16.5037 3.67284 16.7417 3.51482 17.0186 3.40137C17.2961 3.28766 17.602 3.2315 17.9355 3.23145ZM17.9355 4.01855C17.7293 4.0186 17.5448 4.05202 17.3818 4.11914C17.2187 4.18635 17.0805 4.28312 16.9668 4.40918C16.853 4.53541 16.7642 4.68986 16.7021 4.87305C16.6402 5.05599 16.6094 5.26452 16.6094 5.49805C16.6094 5.7314 16.6403 5.93924 16.7021 6.12207C16.7642 6.30537 16.853 6.45964 16.9668 6.58496C17.0805 6.71004 17.2187 6.80581 17.3818 6.87305C17.5448 6.94016 17.7293 6.97457 17.9355 6.97461C18.142 6.97461 18.3262 6.94017 18.4883 6.87305C18.6505 6.80583 18.7877 6.71005 18.9004 6.58496C19.0132 6.45976 19.101 6.30536 19.1621 6.12207C19.223 5.93923 19.2539 5.73143 19.2539 5.49805C19.2539 5.26444 19.2231 5.05605 19.1621 4.87305C19.1009 4.68979 19.0132 4.53541 18.9004 4.40918C18.7875 4.2831 18.6505 4.18632 18.4883 4.11914C18.3262 4.05202 18.142 4.01855 17.9355 4.01855Z" fill="black" stroke="black" stroke-width="0.1"/>
<path d="M12.3008 3.27832V5.14355H14.2344V3.27832H15.1465V7.71582H14.2344V5.81934H12.3008V7.71582H11.3877V3.27832H12.3008Z" fill="black" stroke="black" stroke-width="0.1"/>
<path d="M28.3965 3.27832V6.94922H30.1328V7.71582H27.4893V3.27832H28.3965Z" fill="black" stroke="black" stroke-width="0.1"/>
<path d="M23.6406 3.27832V4.04102H22.3359V7.71582H21.4287V4.04102H20.1182V3.27832H23.6406Z" fill="black" stroke="black" stroke-width="0.1"/>
<path d="M26.8887 3.27832V4.01953H24.9668V5.12305H26.4814V5.84375H24.9668V6.9707H26.8887V7.71582H24.0537V3.27832H26.8887Z" fill="black" stroke="black" stroke-width="0.1"/>
</svg>
